SplineFontDB: 3.2
FontName: NewCMUncial10-Bold
FullName: NewCMUncial10-Bold
FamilyName: NewCMUncial10
Weight: Bold
Copyright: Copyright (c) 2021, Antonis Tsolomitis
Version: 4.1
ItalicAngle: 0
UnderlinePosition: -100
UnderlineWidth: 50
Ascent: 750
Descent: 250
InvalidEm: 0
LayerCount: 2
Layer: 0 0 "Back" 1
Layer: 1 0 "Fore" 0
UniqueID: 4082314
StyleMap: 0x0000
FSType: 0
OS2Version: 0
OS2_WeightWidthSlopeOnly: 0
OS2_UseTypoMetrics: 0
CreationTime: 1636901363
ModificationTime: 1637128157
OS2TypoAscent: 0
OS2TypoAOffset: 1
OS2TypoDescent: 0
OS2TypoDOffset: 1
OS2TypoLinegap: 90
OS2WinAscent: 0
OS2WinAOffset: 1
OS2WinDescent: 0
OS2WinDOffset: 1
HheadAscent: 0
HheadAOffset: 1
HheadDescent: 0
HheadDOffset: 1
Lookup: 1 0 0 "'salt' Stylistic Alternatives lookup 0" { "'salt' Stylistic Alternatives lookup 0-1"  } ['salt' ('DFLT' <'dflt' > 'grek' <'dflt' > 'latn' <'dflt' > ) ]
MarkAttachClasses: 1
DEI: 91125
LangName: 1033
Encoding: UnicodeFull
UnicodeInterp: none
NameList: AGL For New Fonts
DisplaySize: -72
AntiAlias: 1
FitToEm: 0
WinInfo: 0 18 7
BeginPrivate: 8
BlueValues 63 [-74.000 0.000 430.000 448.000 665.000 667.000 677.000 705.000]
BlueScale 12 0.0135135135
StdHW 8 [31.000]
StdVW 8 [89.000]
StemSnapH 15 [22.000 31.000]
StemSnapV 15 [28.000 89.000]
ForceBoldThreshold 2 .5
ForceBold 5 false
EndPrivate
BeginChars: 1114120 169

StartChar: exclam
Encoding: 33 33 0
Width: 350
Flags: W
HStem: 0 156<153.5 196.5>
VStem: 96 158<634 653.5 634 653.5>
LayerCount: 2
Fore
SplineSet
254 634 m 1
 252 621 l 1
 200 248 l 2
 197 228 194 226 175 226 c 0
 154 226 153 228 150 252 c 2
 98 616 l 2
 96 626 96 628 96 634 c 0
 96 673 132 705 175 705 c 0
 218 705 254 673 254 634 c 1
253 78 m 0
 253 35 218 0 175 0 c 0
 132 0 97 35 97 78 c 0
 97 121 132 156 175 156 c 0
 218 156 253 121 253 78 c 0
EndSplineSet
EndChar

StartChar: quotedbl
Encoding: 34 34 1
Width: 481
Flags: W
HStem: 418 21G<136 184 136 136 298 298 298 346> 677 20G<143 176.5 305 338.5>
LayerCount: 2
Fore
SplineSet
217 640 m 2
 184 418 l 1
 136 418 l 1
 103 640 l 2
 98 671 126 697 160 697 c 0
 193 697 221 671 217 640 c 2
379 640 m 2
 346 418 l 1
 298 418 l 1
 265 640 l 2
 260 671 288 697 322 697 c 0
 355 697 383 671 379 640 c 2
EndSplineSet
EndChar

StartChar: numbersign
Encoding: 35 35 2
Width: 958
Flags: W
HStem: -194 21G<213.5 233.5 469.5 489.5> 108 61<105 110 110 274 358 530 105 338 614 847> 332 61<99 363 110 343 110 407 427 599 683 847 847 852> 674 20G<467 487.5 723 743.5>
VStem: 64 829<123.5 154 347 377.5>
LayerCount: 2
Fore
SplineSet
893 139 m 0
 893 108 862 108 847 108 c 2
 594 108 l 1
 509 -166 l 2
 505 -178 500 -194 479 -194 c 0
 460 -194 448 -179 448 -164 c 0
 448 -156 450 -150 452 -144 c 2
 530 108 l 1
 338 108 l 1
 253 -166 l 2
 249 -178 244 -194 223 -194 c 0
 204 -194 192 -179 192 -164 c 0
 192 -156 194 -150 196 -144 c 2
 274 108 l 1
 110 108 l 2
 95 108 64 108 64 139 c 0
 64 169 93 169 105 169 c 2
 294 169 l 1
 343 332 l 1
 105 332 l 2
 93 332 64 332 64 362 c 0
 64 393 95 393 110 393 c 2
 363 393 l 1
 447 664 l 2
 451 677 456 694 478 694 c 0
 497 694 509 679 509 664 c 0
 509 657 509 656 505 644 c 2
 427 393 l 1
 619 393 l 1
 703 664 l 2
 707 677 712 694 734 694 c 0
 753 694 765 679 765 664 c 0
 765 657 765 656 761 644 c 2
 683 393 l 1
 847 393 l 2
 862 393 893 393 893 362 c 0
 893 332 864 332 852 332 c 2
 663 332 l 1
 614 169 l 1
 852 169 l 2
 864 169 893 169 893 139 c 0
599 332 m 1
 407 332 l 1
 358 169 l 1
 550 169 l 1
 599 332 l 1
EndSplineSet
EndChar

StartChar: dollar
Encoding: 36 36 3
Width: 575
Flags: W
HStem: -56 21G<264 311 264 264> -6 48 127 125<123 138.5 123 149.5> 456 125<447 447> 652 45 730 20G<264 311 311 311>
VStem: 64 125<177 212.5 177 217> 264 47<-56 -5 -56 -5 42 283 439 652 699 750> 385 125<496.5 531>
LayerCount: 2
Fore
SplineSet
510 210 m 0
 510 117 459 9 311 -5 c 1
 311 -56 l 1
 264 -56 l 1
 264 -5 l 1
 110 6 64 107 64 185 c 0
 64 249 119 252 127 252 c 0
 150 252 189 236 189 189 c 0
 189 165 176 127 123 127 c 1
 129 113 154 52 264 42 c 1
 264 293 l 1
 223 302 171 312 123 359 c 0
 85 397 64 444 64 498 c 0
 64 585 116 688 264 699 c 1
 264 750 l 1
 311 750 l 1
 311 699 l 1
 458 690 510 603 510 522 c 0
 510 466 465 456 447 456 c 0
 421 456 385 474 385 519 c 0
 385 543 399 579 448 581 c 1
 416 643 334 650 311 652 c 1
 311 428 l 1
 342 422 397 412 444 366 c 0
 478 332 510 280 510 210 c 0
264 439 m 1
 264 652 l 1
 185 646 144 599 144 546 c 0
 144 507 173 454 264 439 c 1
430 162 m 0
 430 220 383 271 311 283 c 1
 311 42 l 1
 389 50 430 101 430 162 c 0
EndSplineSet
EndChar

StartChar: percent
Encoding: 37 37 4
Width: 958
Flags: W
HStem: -56 36<712.5 767 712.5 783> 311 36<712.5 769.5> 347 36<202.5 257 202.5 273> 608 36<516.5 551.5> 695 36 714 36<202.5 252.5 194 259.5>
VStem: 64 103<517 579.5 517 619> 191 47 336 47<483.5 557 477 611> 574 103<114 176.5 114 216> 846 47<80.5 208>
LayerCount: 2
Fore
SplineSet
797 719 m 0x04
 797 709 793 704 786 695 c 2xab60
 217 -40 l 2
 210 -50 205 -56 191 -56 c 0
 174 -56 160 -42 160 -25 c 0
 160 -14 171 0 171 0 c 1
 658 630 l 1
 608 610 562 608 541 608 c 0
 492 608 434 619 368 649 c 1
 383 602 383 566 383 548 c 0
 383 406 310 347 236 347 c 0
 155 347 64 404 64 549 c 0
 64 689 152 750 236 750 c 0xb780
 269 750 293 739 314 724 c 0
 344 702 424 644 540 644 c 0
 628 644 693 679 737 731 c 0x18
 745 741 752 750 767 750 c 0
 781 750 797 739 797 719 c 0x04
893 145 m 0
 893 3 820 -56 746 -56 c 0
 665 -56 574 1 574 146 c 0
 574 286 662 347 746 347 c 0
 816 347 893 292 893 145 c 0
336 549 m 0
 336 673 281 714 238 714 c 0xc5e0
 167 714 167 611 167 548 c 0
 167 486 167 383 238 383 c 0
 276 383 336 418 336 549 c 0
846 146 m 0
 846 270 791 311 748 311 c 0
 677 311 677 208 677 145 c 0
 677 83 677 -20 748 -20 c 0
 786 -20 846 15 846 146 c 0
EndSplineSet
EndChar

StartChar: ampersand
Encoding: 38 38 5
Width: 912
Flags: W
LayerCount: 2
Fore
SplineSet
650 451 m 1
 787 431 l 2
 792 430 817 426 833 462 c 1
 894 447 l 1
 845 325 l 1
 808 344 804 346 780 350 c 0
 671 366 583 287 569 189 c 0
 556 100 607 58 646 53 c 0
 675 49 703 59 760 135 c 1
 796 103 810 78 812 38 c 1
 736 -12 640 -22 556 11 c 1
 516 -11 467 -22 407 -22 c 0
 219 -22 56 136 56 342 c 0
 56 545 218 705 407 705 c 0
 507 705 678 673 678 529 c 0
 678 498 668 471 650 451 c 1
592 378 m 1
 578 379 515 391 505 384 c 0
 493 377 490 357 476 300 c 1
 414 308 l 1
 454 478 l 1
 485 475 518 469 549 473 c 0
 574 476 585 484 585 504 c 0
 585 559 540 638 418 638 c 0
 366 638 192 610 192 341 c 0
 192 73 367 45 419 45 c 0
 446 45 470 49 490 55 c 1
 458 90 442 136 450 189 c 0
 467 300 525 344 592 378 c 1
EndSplineSet
Substitution2: "'salt' Stylistic Alternatives lookup 0-1" ampersand.alt
EndChar

StartChar: quotesingle
Encoding: 39 39 6
Width: 319
Flags: W
HStem: 418 21G<136 184 136 136> 677 20G<143 176.5>
VStem: 136 48<418 418>
LayerCount: 2
Fore
SplineSet
217 640 m 2
 184 418 l 1
 136 418 l 1
 103 640 l 2
 98 671 126 697 160 697 c 0
 193 697 221 671 217 640 c 2
EndSplineSet
EndChar

StartChar: parenleft
Encoding: 40 40 7
Width: 447
Flags: W
HStem: -249 21G<354.5 368> 730 20G<355.5 368>
VStem: 108 97<206 304>
LayerCount: 2
Fore
SplineSet
382 -235 m 0
 382 -246 372 -249 364 -249 c 0
 345 -249 254 -182 188 -67 c 0
 141 16 108 126 108 251 c 0
 108 357 131 541 287 696 c 0
 305 713 347 750 364 750 c 0
 372 750 382 747 382 736 c 0
 382 731 381 730 366 715 c 0
 256 604 205 447 205 250 c 0
 205 162 217 70 243 -9 c 0
 285 -137 350 -198 379 -225 c 1
 379 -225 382 -230 382 -235 c 0
EndSplineSet
EndChar

StartChar: parenright
Encoding: 41 41 8
Width: 447
Flags: W
HStem: -249 21G<78 90.5> 730 20G<78 91.5>
VStem: 241 97<197 312.5 197 329.5>
LayerCount: 2
Fore
SplineSet
338 250 m 0
 338 144 315 -40 159 -195 c 0
 141 -212 99 -249 82 -249 c 0
 74 -249 64 -246 64 -235 c 0
 64 -230 65 -229 80 -214 c 0
 190 -103 241 54 241 251 c 0
 241 408 207 585 81 713 c 0
 64 729 64 731 64 736 c 0
 64 747 74 750 82 750 c 0
 101 750 192 683 258 568 c 0
 305 485 338 375 338 250 c 0
EndSplineSet
EndChar

StartChar: asterisk
Encoding: 42 42 9
Width: 575
Flags: W
HStem: 306 21G<278.5 295.5> 730 20G<278.5 295.5>
VStem: 242 89
LayerCount: 2
Fore
SplineSet
500 440 m 0
 500 411 476 392 456 392 c 0
 451 392 442 393 429 403 c 2
 307 495 l 1
 320 418 l 2
 324 393 331 350 331 345 c 0
 331 317 304 306 287 306 c 0
 270 306 243 316 243 345 c 0
 243 350 243 352 246 368 c 2
 268 496 l 1
 145 403 l 2
 133 394 124 392 118 392 c 0
 98 392 74 411 74 440 c 0
 74 469 95 476 104 479 c 2
 245 528 l 1
 104 577 l 2
 95 580 74 587 74 616 c 0
 74 645 98 664 118 664 c 0
 124 664 133 662 145 653 c 2
 268 560 l 1
 246 688 l 2
 243 704 243 706 243 711 c 0
 243 739 270 750 287 750 c 0
 304 750 331 740 331 711 c 0
 331 706 331 704 328 688 c 2
 306 560 l 1
 429 653 l 2
 441 662 450 664 456 664 c 0
 476 664 500 645 500 616 c 0
 500 587 479 580 470 577 c 2
 329 528 l 1
 470 479 l 2
 479 476 500 469 500 440 c 0
EndSplineSet
EndChar

StartChar: plus
Encoding: 43 43 10
Width: 894
Flags: W
HStem: -132 21G<431 461.5> 220 61<100.5 416 107 416 477 786> 613 20G<431.5 462>
VStem: 416 61<-90 220 281 591>
LayerCount: 2
Fore
SplineSet
829 250 m 0
 829 220 799 220 786 220 c 2
 477 220 l 1
 477 -90 l 2
 477 -103 477 -132 446 -132 c 0
 416 -132 416 -102 416 -90 c 2
 416 220 l 1
 107 220 l 2
 94 220 64 220 64 250 c 0
 64 281 93 281 107 281 c 2
 416 281 l 1
 416 591 l 2
 416 604 416 633 447 633 c 0
 477 633 477 603 477 591 c 2
 477 281 l 1
 786 281 l 2
 800 281 829 281 829 250 c 0
EndSplineSet
EndChar

StartChar: comma
Encoding: 44 44 11
Width: 319
Flags: W
HStem: -194 21G<126 137.5> 0 156<135 175>
VStem: 81 169<58 65 -38.5 99.5>
LayerCount: 2
Fore
SplineSet
250 31 m 0
 250 -108 145 -194 130 -194 c 0
 122 -194 111 -184 111 -174 c 0
 111 -168 114 -165 120 -160 c 0
 141 -142 206 -89 214 20 c 1
 211 17 191 0 159 0 c 0
 108 0 81 38 81 78 c 0
 81 121 112 156 158 156 c 0
 216 156 250 99 250 31 c 0
EndSplineSet
EndChar

StartChar: hyphen
Encoding: 45 45 12
Width: 383
Flags: W
HStem: 174 97<13 318 13 318>
VStem: 13 305<174 271 174 271>
LayerCount: 2
Fore
SplineSet
318 174 m 1
 13 174 l 1
 13 271 l 1
 318 271 l 1
 318 174 l 1
EndSplineSet
EndChar

StartChar: period
Encoding: 46 46 13
Width: 319
Flags: W
HStem: 0 156<137.5 180.5>
VStem: 81 156<56.5 99.5>
LayerCount: 2
Fore
SplineSet
237 78 m 0
 237 35 202 0 159 0 c 0
 116 0 81 35 81 78 c 0
 81 121 116 156 159 156 c 0
 202 156 237 121 237 78 c 0
EndSplineSet
EndChar

StartChar: zero
Encoding: 48 48 14
Width: 654
Flags: W
HStem: -11 36<309.5 344.5 309.5 360.5> 425 36<309.5 344.5>
VStem: 85 128<199 251 199 258> 441 128<199 251>
LayerCount: 2
Fore
SplineSet
569 225 m 0
 569 159 557 92 511 46 c 0
 463 0 394 -11 327 -11 c 0
 260 -11 191 0 143 46 c 0
 97 92 85 159 85 225 c 0
 85 291 97 358 143 404 c 0
 191 450 260 461 327 461 c 0
 394 461 463 450 511 404 c 0
 557 358 569 291 569 225 c 0
441 225 m 0
 441 277 439 331 413 377 c 0
 396 407 362 425 327 425 c 0
 292 425 258 407 241 377 c 0
 215 331 213 277 213 225 c 0
 213 173 215 119 241 73 c 0
 258 43 292 25 327 25 c 0
 362 25 396 43 413 73 c 0
 439 119 441 173 441 225 c 0
EndSplineSet
EndChar

StartChar: one
Encoding: 49 49 15
Width: 494
Flags: W
HStem: 0 47<54 193> 4 43 370 47<43 68> 441 20G<279 298.5>
VStem: 193 119<47 383 383 383>
LayerCount: 2
Fore
SplineSet
452 0 m 1xb8
 257 4 l 1
 54 0 l 1
 54 47 l 1
 193 47 l 1
 193 383 l 1
 144 370 93 370 43 370 c 1
 43 417 l 1
 113 417 183 419 249 449 c 0
 263 454 270 461 288 461 c 0
 309 461 312 451 312 437 c 2
 312 47 l 1
 452 47 l 1
 452 0 l 1xb8
EndSplineSet
EndChar

StartChar: two
Encoding: 50 50 16
Width: 636
Flags: W
HStem: 0 117<271 461 461 469 271 520> 414 47<261 292.5>
VStem: 98 109<341 365 341 406.5> 413 138<288 358>
LayerCount: 2
Fore
SplineSet
551 182 m 1
 520 0 l 1
 85 0 l 1
 85 25 l 2
 85 46 97 50 110 58 c 2
 289 173 l 2
 350 212 413 251 413 317 c 0
 413 399 320 414 265 414 c 0
 236 414 213 408 186 401 c 1
 200 389 207 374 207 356 c 0
 207 326 185 302 154 302 c 0
 122 302 98 325 98 357 c 0
 98 456 226 461 296 461 c 0
 395 461 551 445 551 323 c 0
 551 253 496 223 436 195 c 2
 271 117 l 1
 461 117 l 2
 477 117 488 123 492 139 c 2
 504 182 l 1
 551 182 l 1
EndSplineSet
EndChar

StartChar: three
Encoding: 51 51 17
Width: 648
Flags: W
HStem: -205 43<293 358 293 400.5> -53 39 136 39 422 39<292.5 349.5>
VStem: 85 153<-73.5 -30.5 -73.5 -29.5> 117 139<297.5 345 297.5 357> 162 139 241 153 257 137 394 137<318.5 341.5> 410 153<-36.5 12.5>
LayerCount: 2
Fore
SplineSet
563 -14 m 0x3440
 563 -105 490 -205 311 -205 c 0
 182 -205 85 -145 85 -55 c 0xc820
 85 -4 120 23 162 23 c 0x02
 206 23 238 -8 238 -53 c 0x48
 238 -94 213 -119 180 -128 c 1
 228 -158 280 -162 306 -162 c 0
 410 -162 410 -60 410 -13 c 0
 410 38 410 136 301 136 c 2xa220
 257 136 l 2x2080
 239 136 229 136 229 154 c 0
 229 160 231 170 241 171 c 0x01
 246 172 248 173 289 175 c 0
 393 181 394 312 394 325 c 0
 394 358 391 422 308 422 c 0
 277 422 233 414 198 386 c 1
 202 385 256 374 256 316 c 0
 256 279 231 247 186 247 c 0
 148 247 117 274 117 317 c 0
 117 397 195 461 314 461 c 0
 455 461 531 399 531 322 c 0
 531 236 458 179 389 158 c 1
 534 127 563 41 563 -14 c 0x3440
EndSplineSet
EndChar

StartChar: four
Encoding: 52 52 18
Width: 595
Flags: W
HStem: -194 47<219 331> -191 44<219 411> 0 47<95 331 43 43 456 553> 468 20G<415.5 440>
VStem: 331 125<-147 0 -147 0> 342 114<47 345 345 345>
LayerCount: 2
Fore
SplineSet
553 -194 m 1x78
 518 -191 431 -191 391 -191 c 0x78
 348 -191 257 -191 219 -194 c 1x80
 219 -147 l 1
 331 -147 l 1
 331 0 l 1
 43 0 l 1
 43 47 l 1
 392 472 l 2
 405 487 405 488 426 488 c 0
 454 488 456 483 456 456 c 2
 456 47 l 1
 553 47 l 1
 553 0 l 1
 456 0 l 1
 456 -147 l 1
 553 -147 l 1
 553 -194 l 1x78
342 47 m 1
 342 345 l 1
 95 47 l 1
 342 47 l 1
EndSplineSet
EndChar

StartChar: five
Encoding: 53 53 19
Width: 630
Flags: W
HStem: -205 43<271 343 271 367> -100 135 7 135 179 36<303.5 358.5> 305 124<280 335> 441 20G<143 151.5 484.5 492>
VStem: 85 134<-53.5 -6.5 -53.5 -4.5> 136 53<180 312 180 434> 158 104 180 134 403 142<-25.5 51>
LayerCount: 2
Fore
SplineSet
545 7 m 0x11
 545 -115 447 -205 287 -205 c 0
 163 -205 85 -120 85 -35 c 0
 85 26 137 35 152 35 c 0
 176 35 219 20 219 -33 c 0xc2
 219 -74 190 -98 154 -100 c 1
 196 -157 259 -162 283 -162 c 0
 403 -162 403 -62 403 11 c 0
 403 91 403 179 314 179 c 0
 273 179 219 169 180 123 c 0xd060
 173 115 171 111 158 111 c 0x0080
 136 111 136 124 136 142 c 2
 136 434 l 2x21
 136 450 136 461 150 461 c 0
 153 461 154 460 163 457 c 0
 189 448 242 429 318 429 c 0
 361 429 414 435 471 457 c 0
 482 461 483 461 486 461 c 0
 498 461 500 450 500 443 c 0
 500 418 408 305 262 305 c 0x0c80
 228 305 217 307 189 312 c 1
 189 180 l 1
 236 212 289 215 318 215 c 0
 466 215 545 122 545 7 c 0x11
EndSplineSet
EndChar

StartChar: six
Encoding: 54 54 20
Width: 648
Flags: W
HStem: -11 43<300 376.5 300 397.5> 382 36<330 379.5> 466 189<318 490.5> 616 39<357.5 397>
VStem: 85 136<342 361 342 443> 409 125<511 543> 427 136<156.5 257>
LayerCount: 2
Fore
SplineSet
563 205 m 0x5c
 563 71 467 -11 328 -11 c 0
 258 -11 182 13 135 89 c 0
 94 158 85 238 85 317 c 0
 85 569 250 655 386 655 c 0
 492 655 534 592 534 530 c 0
 534 492 510 466 471 466 c 0xac
 432 466 409 494 409 528 c 0
 409 558 427 585 463 590 c 1
 440 613 406 616 388 616 c 0
 327 616 273 580 249 533 c 0
 242 518 221 475 221 361 c 2
 221 342 l 1
 263 418 319 418 341 418 c 0
 462 418 563 345 563 205 c 0x5c
427 207 m 0
 427 307 427 382 332 382 c 0
 277 382 223 335 223 210 c 0
 223 192 223 119 239 87 c 0
 247 71 274 32 326 32 c 0
 427 32 427 106 427 207 c 0
EndSplineSet
EndChar

StartChar: seven
Encoding: 55 55 21
Width: 579
Flags: W
HStem: -199 21G<231 242> 331 125<217.5 537 333 395> 468 20G<78 125 125 125>
VStem: 172 125<-161 -128 -128 -82 -161 -55>
LayerCount: 2
Fore
SplineSet
537 456 m 1
 537 421 537 419 527 408 c 2
 372 228 l 2
 312 158 297 34 297 -82 c 2
 297 -128 l 2
 297 -194 250 -199 234 -199 c 0
 228 -199 172 -199 172 -129 c 0
 172 19 244 154 340 266 c 0
 358 288 377 309 395 331 c 1
 226 331 l 2
 209 331 128 331 117 325 c 0
 113 323 100 310 90 234 c 1
 43 234 l 1
 78 488 l 1
 125 488 l 1
 127 478 128 469 149 465 c 0
 163 461 310 456 333 456 c 2
 537 456 l 1
EndSplineSet
EndChar

StartChar: eight
Encoding: 56 56 22
Width: 648
Flags: W
HStem: -11 43<277 354.5 277 402> 187 39 616 39<302 364>
VStem: 85 86<122 198> 117 75<522 528> 236 86 456 75<482.5 541> 477 86<132 156>
LayerCount: 2
Fore
SplineSet
563 187 m 0x2a
 563 77 482 -11 322 -11 c 0
 193 -11 85 40 85 161 c 0xd5
 85 235 129 292 213 329 c 1
 135 373 117 436 117 480 c 0
 117 576 187 655 326 655 c 0
 440 655 531 610 531 508 c 0
 531 450 500 406 430 370 c 1
 479 342 563 295 563 187 c 0x2a
456 507 m 0
 456 575 406 616 322 616 c 0
 282 616 192 609 192 539 c 0xae
 192 505 220 488 236 479 c 2
 386 395 l 1
 430 424 456 458 456 507 c 0
477 132 m 0
 477 180 440 201 396 226 c 2
 259 302 l 1
 224 282 171 239 171 161 c 0x51
 171 83 228 32 326 32 c 0
 383 32 477 48 477 132 c 0
EndSplineSet
EndChar

StartChar: nine
Encoding: 57 57 23
Width: 648
Flags: W
HStem: -205 43<265 308.5 265 341> -205 189<157.5 341> 33 36<268.5 324.5> 422 39<274.5 357.5>
VStem: 85 136<194 293 194 313> 114 125<-100.5 -61 -100.5 -61> 190 136 426 137<7 251> 427 136<88 110 110 110>
LayerCount: 2
Fore
SplineSet
563 135 m 0x12
 563 -121 406 -205 276 -205 c 0
 165 -205 114 -148 114 -80 c 0
 114 -42 138 -16 177 -16 c 0
 216 -16 239 -44 239 -78 c 0x65
 239 -123 202 -137 190 -140 c 1x02
 220 -160 256 -162 274 -162 c 0
 343 -162 386 -117 403 -78 c 0
 418 -44 427 15 427 88 c 2
 427 110 l 1
 389 40 342 33 307 33 c 0
 184 33 85 108 85 246 c 0xa880
 85 380 184 461 326 461 c 0
 563 461 563 202 563 135 c 0x12
426 234 m 0
 426 268 426 326 414 359 c 0
 410 369 387 422 328 422 c 0
 221 422 221 342 221 244 c 0x19
 221 144 221 69 316 69 c 0
 400 69 426 171 426 234 c 0
EndSplineSet
EndChar

StartChar: colon
Encoding: 58 58 24
Width: 319
Flags: W
HStem: 0 156<137.5 180.5> 288 156<137.5 180.5>
VStem: 81 156<56.5 99.5 344.5 387.5>
LayerCount: 2
Fore
SplineSet
237 366 m 0
 237 323 202 288 159 288 c 0
 116 288 81 323 81 366 c 0
 81 409 116 444 159 444 c 0
 202 444 237 409 237 366 c 0
237 78 m 0
 237 35 202 0 159 0 c 0
 116 0 81 35 81 78 c 0
 81 121 116 156 159 156 c 0
 202 156 237 121 237 78 c 0
EndSplineSet
EndChar

StartChar: semicolon
Encoding: 59 59 25
Width: 319
Flags: W
HStem: -194 21G<126 137> 0 156<135 170.5> 288 156<137.5 180.5>
VStem: 81 156<344.5 387.5>
LayerCount: 2
Fore
SplineSet
237 366 m 0
 237 323 202 288 159 288 c 0
 116 288 81 323 81 366 c 0
 81 409 116 444 159 444 c 0
 202 444 237 409 237 366 c 0
240 32 m 0
 240 -104 144 -194 130 -194 c 0
 122 -194 111 -184 111 -174 c 0
 111 -168 113 -166 121 -159 c 0
 152 -129 195 -75 203 12 c 1
 198 9 182 0 159 0 c 0
 108 0 81 38 81 78 c 0
 81 121 112 156 158 156 c 0
 215 156 240 97 240 32 c 0
EndSplineSet
EndChar

StartChar: less
Encoding: 60 60 26
Width: 894
Flags: W
HStem: -86 21G<766 775.5> 567 20G<762.5 775.5>
LayerCount: 2
Fore
SplineSet
797 -56 m 0
 797 -70 785 -86 766 -86 c 1
 766 -86 758 -86 744 -79 c 2
 121 219 l 2
 108 225 96 233 96 251 c 0
 96 269 110 277 121 282 c 2
 747 581 l 2
 754 585 759 587 766 587 c 0
 785 587 797 571 797 557 c 0
 797 540 786 532 772 525 c 2
 197 250 l 1
 772 -24 l 2
 786 -31 797 -39 797 -56 c 0
EndSplineSet
EndChar

StartChar: equal
Encoding: 61 61 27
Width: 894
Flags: W
HStem: 108 61<105 110 110 783> 332 61<99 783 110 783 783 788>
VStem: 64 765<123.5 154 347 377.5>
LayerCount: 2
Fore
SplineSet
829 362 m 0
 829 332 800 332 788 332 c 2
 105 332 l 2
 93 332 64 332 64 362 c 0
 64 393 95 393 110 393 c 2
 783 393 l 2
 798 393 829 393 829 362 c 0
829 139 m 0
 829 108 798 108 783 108 c 2
 110 108 l 2
 95 108 64 108 64 139 c 0
 64 169 93 169 105 169 c 2
 788 169 l 2
 800 169 829 169 829 139 c 0
EndSplineSet
EndChar

StartChar: greater
Encoding: 62 62 28
Width: 894
Flags: W
HStem: -86 21G<117.5 130.5> 567 20G<118 127.5>
LayerCount: 2
Fore
SplineSet
797 251 m 0
 797 233 786 225 772 219 c 2
 146 -80 l 2
 139 -84 134 -86 127 -86 c 0
 108 -86 96 -70 96 -56 c 0
 96 -41 104 -32 121 -24 c 2
 696 251 l 1
 121 525 l 2
 105 533 96 541 96 557 c 0
 96 573 110 587 126 587 c 0
 129 587 135 587 149 580 c 2
 772 282 l 2
 783 277 797 269 797 251 c 0
EndSplineSet
EndChar

StartChar: at
Encoding: 64 64 29
Width: 798
Flags: W
HStem: -201 34<206.133 268> -155 79<302.83 501.731> 10 44<596.024 644.052> 406 34<257 331.755> 512 79<302.83 495.619>
VStem: 43 80<107.294 328.706> 675 80<98.5872 328.706>
LayerCount: 2
Fore
SplineSet
403 232 m 1
 349 142 198 -112 198 -112 c 2
 176.301020822 -148.411945548 229 -167 268 -167 c 1
 268 -201 l 1
 123 -201 l 2
 84 -201 67.0085731786 -153.988569095 87 -126 c 0
 89.9061516713 -121.931304575 357 217.98 357 338 c 0
 357 370.244552894 343 406 257 406 c 1
 257 440 l 1
 361 438 l 2
 393 437 405 426 420 397 c 2
 589 88 l 2
 603.62989955 61.2506570355 612 54 621 54 c 0
 650 54 675 161 675 218 c 0
 675 386 542 512 400 512 c 0
 256 512 123 386 123 218 c 0
 123 50 256 -76 400 -76 c 0
 450 -76 493 -64 541 -33 c 0
 588 -2 631 -71 580 -102 c 0
 519 -139 464 -155 399 -155 c 0
 208 -155 43 11 43 218 c 0
 43 425 208 591 399 591 c 0
 590 591 755 425 755 218 c 0
 755 138 734 80 697 10 c 1
 510 10 l 1
 477 85 l 2
 464 113 424 189 403 232 c 1
EndSplineSet
EndChar

StartChar: A
Encoding: 65 65 30
Width: 710
Flags: W
HStem: -20 21G<76 153.5> -1 47<608.993 691> 637 47<115 215.452>
LayerCount: 2
Fore
SplineSet
665 -1 m 2x60
 647 -1 530.581752298 -4.3431571119 519 0 c 0
 495 9 474.794070759 46.9329204703 470 62 c 0
 463 84 455 108 448 128 c 1
 319 100 218 75 89 -20 c 1xa0
 63 -20 34 -11 25 30 c 1
 77 115 142 212 195 300 c 0
 249 389 286 461 286 493 c 0
 286 511 281 550 269 569 c 0
 238 614 183 637 115 637 c 1
 115 684 l 1
 189 680 251 680 333 685 c 1
 602 80 l 2
 609 65 621 46 657 46 c 2
 691 46 l 1
 691 -1 l 1
 665 -1 l 2x60
172 154 m 1
 248 178 373 183 425 187 c 1
 400 241 348 358 327 403 c 1
 280 328 221 229 172 154 c 1
EndSplineSet
EndChar

StartChar: B
Encoding: 66 66 31
Width: 774
Flags: W
HStem: -22 55<275.003 453.417> 339 35<369 391.717> 638 56<24 132 348.094 506.031>
VStem: 132 132<82 561.366 620 644> 548 129<474.854 598.728> 590 131<130.031 267.619>
LayerCount: 2
Fore
SplineSet
132 644 m 9xf4
 24 644 l 1
 24 691 l 1
 107 687 184 687 264 692 c 1
 264 620 l 1
 306 654 365 694 455 694 c 0
 553 694 677 651 677 552 c 0xf8
 677 466 606 408 539 364 c 1
 630 339 721 294 721 191 c 4
 721 52 546 -22 326 -22 c 0
 177 -22 132 33.3646562132 132 92 c 2
 132 644 l 9xf4
331 374 m 1
 510 412 548 485 548 542 c 4xf8
 548 599 498 638 423 638 c 0
 371 638 309 610 265 531 c 1
 264 82 l 2
 264 82 264 33 332 33 c 0
 385 33 590 63 590 192 c 0xf4
 590 324 460 339 369 339 c 1
 331 374 l 1
EndSplineSet
EndChar

StartChar: C
Encoding: 67 67 32
Width: 831
Flags: W
HStem: -11 47<366.103 588.348> 650 47<364.742 582.053>
VStem: 64 153<219.643 466.357> 712 54<426.066 517.868>
LayerCount: 2
Fore
SplineSet
490 36 m 0
 587 36 662.855722656 91.6804882808 715 167 c 0
 724 180 736 183 746 177 c 0
 754.445325891 171.932804465 762 161 752 142 c 0
 705 55 598 -11 466 -11 c 0
 217 -11 64 138 64 343 c 0
 64 548 217 697 466 697 c 0
 534 697 674 668 766 569 c 1
 766 454 l 2
 766 428 765 426 739 426 c 0
 716 426 715.283216414 428.046887064 712 447 c 0
 690 574 595 650 487 650 c 0
 219.301757812 650 217 427 217 343 c 0
 217 259 222.301757812 36 490 36 c 0
EndSplineSet
EndChar

StartChar: D
Encoding: 68 68 33
Width: 666
Flags: W
HStem: -15 65<259.905 403.129> 637 47<63 218.009>
VStem: 45 124<168.471 389.179> 496 125<166.823 403.818>
LayerCount: 2
Fore
SplineSet
332 -15 m 0
 171 -15 45 118 45 277 c 0
 45 348 68 410 109 465 c 1
 211 507 l 1
 211 447 l 1
 185 409 169 359 169 291 c 0
 169 98 271 50 332 50 c 0
 393 50 496 98 496 291 c 0
 496 450 405 526 289 590 c 4
 276 597 178 637 63 637 c 1
 63 684 l 1
 135 680 281 684 281 684 c 1
 454 601 621 505 621 277 c 0
 621 110 486 -15 332 -15 c 0
EndSplineSet
EndChar

StartChar: E
Encoding: 69 69 34
Width: 831
Flags: W
HStem: -11 47<366.106 588.348> 321.3 60.9939<217.707 337.874> 650 47<364.043 582.053>
VStem: 64 153.211<218.831 321.3 382.294 465.988> 537 61<208 298.905 406.299 497> 712 54<426.066 517.868>
LayerCount: 2
Fore
SplineSet
490 36 m 0
 587 36 662.855722656 91.6804882808 715 167 c 0
 724 180 736 183 746 177 c 0
 754.445325891 171.932804465 762 161 752 142 c 0
 705 55 598 -11 466 -11 c 0
 217 -11 64 138 64 343 c 0
 64 548 217 697 466 697 c 0
 534 697 674 668 766 569 c 1
 766 454 l 2
 766 428 765 426 739 426 c 0
 716 426 715.283216414 428.046887064 712 447 c 0
 690 574 595 650 487 650 c 0
 254.322792191 650 222.144401018 481.530413015 217.707245047 382.293625925 c 1
 453 396 l 2
 533.959792688 400.716104428 537 407 537 497 c 1
 598 497 l 1
 598 208 l 1
 537 208 l 1
 537 298 532.962617121 306.167925697 453 310 c 2
 217.211427588 321.299771841 l 1
 219.370424786 225.994652433 242.905102868 36 490 36 c 0
EndSplineSet
EndChar

StartChar: F
Encoding: 70 70 35
Width: 724
Flags: W
HStem: -97 44<39 147 289 424> 317 47<289 418.154> 439 21G<620.5 675> 633 47<39 147 289 543.475>
VStem: 147 142<-53 317 364 633> 444 47<200 291.63 389.37 481> 628 47<439 493.419>
LayerCount: 2
Fore
SplineSet
675 439 m 1
 628 439 l 1
 613 556 590 633 429 633 c 2
 289 633 l 1
 289 364 l 5
 339 364 l 6
 436 364 444 407 444 481 c 5
 491 481 l 5
 491 200 l 5
 444 200 l 5
 444 274 435 317 339 317 c 6
 289 317 l 5
 289 -53 l 1
 424 -53 l 1
 424 -100 l 1
 380 -97 271 -97 222 -97 c 0
 178 -97 77 -97 39 -100 c 1
 39 -53 l 1
 147 -53 l 1
 147 633 l 1
 39 633 l 1
 39 680 l 1
 644 680 l 1
 675 439 l 1
EndSplineSet
EndChar

StartChar: G
Encoding: 71 71 36
Width: 830
Flags: W
HStem: -11 47<366.103 565.191> 322 87<502.108 621.038> 650 47<364.742 582.053>
VStem: 64 153<219.643 466.357> 665 73<140.326 276.943> 712 54<426.066 517.868>
LayerCount: 2
Fore
SplineSet
490 36 m 0xf4
 585 36 665 141 665 209 c 0
 665 253 635 322 554 322 c 0
 510 322 479 284 448 219 c 1
 392 264 381 303 378 350 c 1
 419 392 464 409 513 409 c 0
 701 409 738 256 738 209 c 0xf8
 738 83 615 -11 466 -11 c 0
 217 -11 64 138 64 343 c 0
 64 548 217 697 466 697 c 0
 534 697 674 668 766 569 c 1
 766 454 l 2
 766 428 765 426 739 426 c 0
 716 426 715.283216414 428.046887064 712 447 c 0
 690 574 595 650 487 650 c 0
 219.301757812 650 217 427 217 343 c 0
 217 259 222.301757812 36 490 36 c 0xf4
EndSplineSet
EndChar

StartChar: H
Encoding: 72 72 37
Width: 764
Flags: W
HStem: -100 49<380.3 489.059> 0 47<33 147 289 403> 517 50<369.988 527.725> 639 44<33 147 289 403>
VStem: 147 142<47 440.995 513 639> 611 114<126.065 399.746>
LayerCount: 2
Fore
SplineSet
403 0 m 1
 362 3 264 3 218 3 c 0
 172 3 74 3 33 0 c 1
 33 47 l 1
 147 47 l 1
 147 639 l 1
 33 639 l 1
 33 686 l 1
 74 683 172 683 218 683 c 0
 264 683 362 683 403 686 c 1
 403 639 l 1
 289 639 l 1
 289 513 l 1
 328 545 389 567 461 567 c 4
 630 567 725 444 725 275 c 0
 725 101 667 -100 426 -100 c 0
 390 -100 380 -86 380 -75 c 4
 380 -61 391 -51 425 -51 c 0
 546 -51 611 115 611 287 c 0
 611 486 509 517 453 517 c 4
 349.391601562 517 289 427.318948271 289 389 c 2
 289 47 l 1
 403 47 l 1
 403 0 l 1
EndSplineSet
EndChar

StartChar: I
Encoding: 73 73 38
Width: 436
Flags: W
HStem: 0 47<33 147> 639 47<33 147 33 33>
VStem: 147 142<47 639 47 639>
LayerCount: 2
Fore
SplineSet
403 0 m 1
 362 3 264 3 218 3 c 0
 172 3 74 3 33 0 c 1
 33 47 l 1
 147 47 l 1
 147 639 l 5
 33 639 l 5
 33 686 l 5
 74 683 172 683 218 683 c 4
 264 683 362 683 403 686 c 5
 403 639 l 5
 289 639 l 5
 289 47 l 1
 403 47 l 1
 403 0 l 1
EndSplineSet
EndChar

StartChar: J
Encoding: 74 74 39
Width: 524
Flags: W
HStem: -22 59<89.2578 180.475> 639 44<74 215 351 432>
VStem: 215 136<76.3411 639>
LayerCount: 2
Fore
SplineSet
351 639 m 1
 351 176 l 2
 351 142.005024541 351 139 350 131 c 0
 339 50 252 -22 153 -22 c 0
 128 -22 78 -4 78 18 c 0
 78 67 119 37 141 37 c 0
 174 37 215 76.001148632 215 158 c 2
 215 639 l 1
 74 639 l 1
 74 686 l 1
 122 683 220 683 273 683 c 0
 312 683 397 683 432 686 c 1
 432 639 l 1
 351 639 l 1
EndSplineSet
EndChar

StartChar: K
Encoding: 75 75 40
Width: 901
Flags: W
HStem: 0 47<39 147> 639 47<39 147 39 39>
VStem: 147 142<47 257 47 319 319 639>
LayerCount: 2
Fore
SplineSet
852 0 m 1
 815 3 746 3 706 3 c 0
 661 3 571 3 530 0 c 1
 530 47 l 1
 565 47 585 47 603 55 c 1
 600 61 600 63 595 69 c 2
 389 340 l 1
 289 257 l 1
 289 47 l 1
 397 47 l 1
 397 0 l 1
 359 3 261 3 218 3 c 0
 175 3 77 3 39 0 c 1
 39 47 l 1
 147 47 l 1
 147 639 l 1
 39 639 l 1
 39 686 l 1
 77 683 175 683 218 683 c 0
 261 683 359 683 397 686 c 1
 397 639 l 1
 289 639 l 1
 289 319 l 1
 659 628 l 1
 650 631 662 630 646 634 c 0
 621 639 601 639 588 639 c 1
 588 686 l 1
 624 683 696 683 734 683 c 0
 739 683 796 683 836 686 c 1
 836 639 l 1
 819 639 l 2
 789 639 747 639 725 621 c 2
 485 421 l 1
 755 67 l 2
 767 51 770 47 823 47 c 2
 852 47 l 1
 852 0 l 1
EndSplineSet
EndChar

StartChar: L
Encoding: 76 76 41
Width: 692
Flags: W
HStem: 0 47<39 147 289 392 392 481.5 39 147> 639 47<39 147 39 39>
VStem: 147 142<47 639 47 639> 596 47<274 274>
LayerCount: 2
Fore
SplineSet
643 274 m 1
 612 0 l 1
 39 0 l 1
 39 47 l 1
 147 47 l 1
 147 639 l 1
 39 639 l 1
 39 686 l 1
 77 683 178 683 222 683 c 0
 271 683 380 683 424 686 c 1
 424 639 l 1
 289 639 l 1
 289 47 l 1
 392 47 l 2
 571 47 588 205 596 274 c 1
 643 274 l 1
EndSplineSet
EndChar

StartChar: M
Encoding: 77 77 42
Width: 1166
Flags: W
HStem: 0 47<56 189.609 428 527 644 743 977.391 1111> 649 47<300.533 428.457 736.591 866.636>
VStem: 63 131<264.546 493.619> 527 117<45 512.182> 973 131<264.546 493.619>
LayerCount: 2
Fore
SplineSet
347 696 m 4
 487 696 546 649 595 584 c 1
 599 584 l 1
 655 648 730 696 830 696 c 0
 990 696 1104 546 1104 387 c 0
 1104 266 1028 125 976 65 c 1
 1005 55 1078 47 1111 47 c 1
 1111 0 l 1
 848 0 l 1
 848 45 l 1
 930 112 973 232 973 355 c 0
 973 482 917 649 797 649 c 0
 721 649 644 541.99958643 644 468 c 2
 644 45 l 17
 743 45 l 1
 743 -2 l 1
 687 3 623 3 586 3 c 0
 549 3 484 3 428 -2 c 1
 428 45 l 1
 527 45 l 9
 527 394 l 2
 527 507.99530957 460 648 370 649 c 0
 250 649 194 482 194 355 c 0
 194 232 237 112 319 45 c 1
 319 0 l 1
 56 0 l 1
 56 47 l 1
 89 47 162 55 191 65 c 1
 139 125 63 266 63 387 c 0
 63 546 177.00390625 696 347 696 c 4
EndSplineSet
EndChar

StartChar: N
Encoding: 78 78 43
Width: 900
Flags: W
HStem: 0 47<39 64> 3 47 636 47 639 47<39 147 39 268>
VStem: 147 53<76 599> 230 53 616 53 699 53<205 610>
LayerCount: 2
Fore
SplineSet
860 639 m 1x10
 835 639 l 2x10
 807 639 805 639 781 636 c 0
 753 633 752 632 752 610 c 2
 752 32 l 2
 752 9 752 0 725 0 c 0xa1
 709 0 708 1 698 13 c 2
 200 599 l 1
 200 76 l 2
 200 54 201 53 230 50 c 0x4c
 248 48 265 47 283 47 c 2
 308 47 l 1
 308 0 l 1
 267 3 215 3 173 3 c 0x84
 134 3 77 3 39 0 c 1
 39 47 l 1
 64 47 l 2x80
 92 47 94 47 118 50 c 0
 146 53 147 54 147 76 c 2
 147 639 l 1
 39 639 l 1
 39 686 l 1
 268 686 l 2x58
 289 686 290 685 301 673 c 2
 699 205 l 1
 699 610 l 2
 699 632 698 633 669 636 c 0x23
 651 638 634 639 616 639 c 2
 591 639 l 1
 591 686 l 1
 632 683 684 683 726 683 c 0x12
 765 683 822 683 860 686 c 1
 860 639 l 1x10
EndSplineSet
EndChar

StartChar: O
Encoding: 79 79 44
Width: 864
Flags: W
HStem: -11 42<401.5 458 401.5 546> 657 40<401.5 463>
VStem: 64 153<311 386 311 444> 646 153<319 388>
LayerCount: 2
Fore
SplineSet
799 339 m 0
 799 134 661 -11 431 -11 c 0
 204 -11 64 132 64 339 c 0
 64 549 203 697 432 697 c 0
 654 697 799 555 799 339 c 0
646 354 m 0
 646 422 642 499 604 563 c 0
 564 629 495 657 431 657 c 0
 372 657 305 632 264 571 c 0
 220 503 217 418 217 354 c 0
 217 268 225 197 258 135 c 0
 299 59 372 31 431 31 c 0
 485 31 555 53 600 126 c 0
 642 195 646 284 646 354 c 0
EndSplineSet
EndChar

StartChar: P
Encoding: 80 80 45
Width: 765
Flags: W
HStem: -103 47<35 132 268 365> 77 57<429.199 520.179> 636 47<35 132> 646 47<386.807 506.786>
VStem: 132 136<-56 456.288 574 635.933> 597 129<283.166 514.632>
LayerCount: 2
Fore
SplineSet
132 636 m 1xec
 35 636 l 1
 35 683 l 1
 193 683 l 2xec
 257 683 265 644 265 597 c 2
 265 574 l 1
 304 632 373 693 463 693 c 0
 617 693 726 551 726 400 c 0
 726 228 593 77 431 77 c 0
 386 77 340 83 296 127 c 1
 299 173 310 213 366 258 c 1
 398 193 428 134 473 134 c 0
 550 134 597 266 597 378 c 0
 597 493 557 646 445 646 c 0xdc
 337 646 268 444.989257812 268 315 c 2
 268 -56 l 1
 365 -56 l 1
 365 -103 l 1
 312 -98 242 -98 207 -98 c 0
 171 -98 88 -98 35 -103 c 1
 35 -56 l 1
 132 -56 l 1
 132 636 l 1xec
EndSplineSet
EndChar

StartChar: Q
Encoding: 81 81 46
Width: 864
Flags: W
HStem: -182.542 68.4004<917.57 1052.1> -11 42<350.057 518.875> 657 40<346.969 520.847>
VStem: 64 153<211.017 469.319> 646 153<208.291 471.396>
LayerCount: 2
Fore
SplineSet
646 354 m 0
 646 422 642 499 604 563 c 0
 564 629 495 657 431 657 c 0
 372 657 305 632 264 571 c 0
 220 503 217 418 217 354 c 0
 217 268 225 197 258 135 c 0
 299 59 372 31 431 31 c 0
 485 31 555 53 600 126 c 0
 642 195 646 284 646 354 c 0
551.034095296 3.90964720112 m 1
 514.502593049 -5.83990827659 474.38829114 -11 431 -11 c 0
 204 -11 64 132 64 339 c 0
 64 549 203 697 432 697 c 0
 654 697 799 555 799 339 c 0
 799 210.156314692 744.487306517 105.013800463 646.882433854 44.6755817269 c 1
 751.903947041 -18.6516011561 896.824825766 -114.141601634 1040.71875 -114.141601562 c 0
 1063.51855469 -114.141601562 1077.19921875 -111.862304688 1099.99902344 -110.72265625 c 1
 1099.99902344 -134.662109375 l 1
 1070.359375 -158.602539062 1007.65917969 -182.541992188 944.958984375 -182.541992188 c 0
 799.842198447 -182.541992188 637.502587638 -68.440424362 551.034095296 3.90964720112 c 1
EndSplineSet
EndChar

StartChar: R
Encoding: 82 82 47
Width: 876
Flags: W
HStem: 0 47<39 147 283 391 740.475 819.998> 313 61<350 423.972> 638 56<39 147 367.094 525.031>
VStem: 147 136<47 561.366 620 644> 567 129<474.342 598.728>
LayerCount: 2
Fore
SplineSet
499 349 m 1
 562 312 607.434601735 244.235156414 639 179 c 0
 669 117 685.547851562 34 740 34 c 0
 750 34 768 38 789 48 c 0
 797.075429977 51.8454428463 812.597297791 48.8054044187 820 34 c 0
 828 18 803.583007812 3.958984375 785 0 c 0
 737.000099867 -10.2260547133 653.999999982 -5.95924808018 609 22 c 0
 565.150806466 49.2442329026 518 103 497 167 c 0
 466 258 473 313 350 313 c 1
 350 374 l 1
 529 412 567 485 567 542 c 0
 567 599 517 638 442 638 c 0
 390 638 328 610 284 531 c 1
 283 47 l 1
 391 47 l 1
 391 0 l 1
 355 3 257 3 215 3 c 0
 173 3 75 3 39 0 c 1
 39 47 l 1
 147 47 l 1
 147 644 l 1
 39 644 l 1
 39 691 l 1
 122 687 203 687 283 692 c 1
 283 620 l 1
 325 654 384 694 474 694 c 0
 572 694 696 651 696 552 c 0
 696 426 577 373 499 349 c 1
EndSplineSet
EndChar

StartChar: S
Encoding: 83 83 48
Width: 639
Flags: W
HStem: -11 47<326.5 399 309 429.5> 240 43 654 43<239 312 212 329>
VStem: 64 97<518.5 548.5> 477 97<152.5 176>
LayerCount: 2
Fore
SplineSet
574 203 m 0
 574 102 512 -11 347 -11 c 0
 306 -11 213 -5 147 44 c 1
 101 -2 l 2
 93 -9 91 -11 82 -11 c 0
 64 -11 64 -2 64 17 c 2
 64 199 l 2
 64 222 64 228 88 228 c 0
 110 228 110 223 111 205 c 0
 119 56 271 36 347 36 c 0
 451 36 477 105 477 153 c 0
 477 199 452 225 437 240 c 0
 415 261 398 264 310 283 c 0
 201 307 167 314 118 363 c 0
 97 385 64 431 64 496 c 0
 64 601 136 697 288 697 c 0
 336 697 401 688 459 642 c 1
 504 686 l 2
 515 696 516 697 524 697 c 0
 542 697 542 688 542 669 c 2
 542 486 l 2
 542 463 542 458 518 458 c 0
 497 458 497 460 493 484 c 0
 470 620 369 654 289 654 c 0
 189 654 161 592 161 549 c 0
 161 488 217 454 257 445 c 2
 402 414 l 2
 493 395 574 314 574 203 c 0
EndSplineSet
EndChar

StartChar: T
Encoding: 84 84 49
Width: 752
Flags: W
HStem: -12 47<362.11 511.708> 600 80<131.295 378 479.197 642.728>
VStem: 34 47<428 512> 115 150<154.265 362.86>
LayerCount: 2
Fore
SplineSet
664 737 m 1
 711 728 l 1
 680 579 l 1
 629 597 622 600 582 600 c 0
 404 600 265 426 265 266 c 0
 265 159 324 35 436 35 c 0
 503 35 563 76 625 195 c 1
 675 161 691 144 700 93 c 1
 588 -8 450 -12 400 -12 c 0
 235 -12 115 84 115 241 c 0
 115 415 230 540 378 600 c 1
 235 600 l 2
 126 600 94 581 81 428 c 1
 34 428 l 1
 55 680 l 1
 564 680 l 2
 631.999263605 680 652 701 664 737 c 1
EndSplineSet
EndChar

StartChar: U
Encoding: 85 85 50
Width: 921
Flags: W
HStem: -11 47<364.3 575.935> -1 47<801.045 894> 639 47<39 147 289 397 606 684 796 875>
VStem: 147 142<137.078 639> 684 112<54.3915 77.2549 137.558 639>
LayerCount: 2
Fore
SplineSet
684 77.2549168624 m 1x78
 639.741737943 24.6384631336 566.862487044 -11 462 -11 c 0
 255 -11 147 98 147 231 c 2
 147 639 l 1
 39 639 l 1
 39 686 l 1
 77 683 175 683 218 683 c 0
 261 683 359 683 397 686 c 1
 397 639 l 1
 289 639 l 1
 289 223 l 2
 289 167 291 36 466 36 c 0xb8
 575 36 684 88 684 236 c 2
 684 639 l 1
 606 639 l 1
 606 686 l 1
 644 683 699 683 742 683 c 0
 785 683 837 683 875 686 c 1
 875 639 l 1
 796 639 l 1
 796 101 l 2
 796 62.0009765625 798 46 894 46 c 1
 894 -1 l 1
 684 2 l 1
 684 77.2549168624 l 1x78
EndSplineSet
EndChar

StartChar: V
Encoding: 86 86 51
Width: 869
Flags: W
HStem: -8 21G<420 442> 639 47<26 118 26 26>
VStem: 26 816<639 686 639 686>
LayerCount: 2
Fore
SplineSet
842 639 m 1
 823 639 l 2
 750 639 746 630 740 617 c 2
 474 16 l 2
 463 -8 450 -8 434 -8 c 0
 406 -8 402 0 394 18 c 2
 118 639 l 1
 26 639 l 1
 26 686 l 1
 61 683 145 683 184 683 c 0
 227 683 323 683 361 686 c 1
 361 639 l 1
 267 639 l 1
 480 160 l 1
 682 615 l 2
 683 618 686 623 686 627 c 0
 686 639 607 639 598 639 c 1
 598 686 l 1
 637 683 689 683 729 683 c 2
 842 686 l 1
 842 639 l 1
EndSplineSet
EndChar

StartChar: W
Encoding: 87 87 52
Width: 1231
Flags: W
HStem: -14 62<286.859 445.484 701.052 845.447> -2 66<1089.62 1164> 639 47<19 112 254 347 453 546 660 753 856 949 1089 1181>
VStem: 112 142<88.4546 639> 546 114<131.291 639> 949 140<130.424 639>
LayerCount: 2
Fore
SplineSet
1089 639 m 1xbc
 1089 98 l 2
 1089 65.0006074507 1097 64 1164 64 c 1
 1164 -2 l 1x7c
 955 -15 l 1
 955 51 l 1
 905 10 824 -14 768 -14 c 0
 725 -14 641 -9 570 70 c 1
 502 12 426 -14 346 -14 c 0
 216 -14 112 41.0074720926 112 185 c 2
 112 639 l 1
 19 639 l 1
 19 686 l 1
 60 683 137 683 183 683 c 0
 229 683 306 683 347 686 c 1
 347 639 l 1
 254 639 l 1
 254 134 l 2
 254 88 294 48 353 48 c 0
 444 48 546 113.01280572 546 196 c 2
 546 639 l 1
 453 639 l 1
 453 686 l 1
 494 683 561 683 607 683 c 0
 653 683 712 683 753 686 c 1
 753 639 l 1
 660 639 l 1
 660 131 l 2
 660 91 711 49 766 49 c 0
 825 49 949 105.005963991 949 186 c 2
 949 639 l 1
 856 639 l 1
 856 686 l 1
 897 683 973 683 1019 683 c 0
 1065 683 1140 683 1181 686 c 1
 1181 639 l 1
 1089 639 l 1xbc
EndSplineSet
EndChar

StartChar: X
Encoding: 88 88 53
Width: 869
Flags: W
HStem: 0 47<34 63> 3 47 636 47 639 47<49 147 49 49>
VStem: 34 801<0 47 0 47>
LayerCount: 2
Fore
SplineSet
835 0 m 1xa8
 800 3 713 3 673 3 c 0xa8
 628 3 533 3 492 0 c 1
 492 47 l 1
 575 47 l 1
 401 288 l 1
 236 69 l 2
 234 66 229 60 228 58 c 1
 263 47 302 47 320 47 c 1
 320 0 l 1
 284 3 207 3 168 3 c 0x80
 125 3 76 3 34 0 c 1
 34 47 l 1
 63 47 l 2x88
 83 47 104 48 124 50 c 0
 156 53 158 55 167 67 c 2
 369 332 l 1
 147 639 l 1
 49 639 l 1
 49 686 l 1
 84 683 171 683 211 683 c 0x50
 256 683 351 683 392 686 c 1
 392 639 l 1
 309 639 l 1
 452 442 l 1
 584 617 l 2
 586 620 591 626 592 628 c 1
 557 639 518 639 500 639 c 1
 500 686 l 1
 536 683 613 683 652 683 c 0
 695 683 744 683 786 686 c 1
 786 639 l 1
 757 639 l 2x10
 729 639 723 639 699 636 c 0
 664 633 663 632 652 618 c 2
 484 397 l 1
 737 47 l 1
 835 47 l 1
 835 0 l 1xa8
EndSplineSet
EndChar

StartChar: Y
Encoding: 89 89 54
Width: 869
Flags: W
HStem: 0 47<258 366> 636 47 639 47<19 117 19 19>
VStem: 366 136<47 274 47 274>
LayerCount: 2
Fore
SplineSet
849 639 m 1x20
 828 639 l 2x20
 811 639 793 638 776 636 c 0x40
 754 633 746 633 737 619 c 2
 502 274 l 1
 502 47 l 1
 611 47 l 1
 611 0 l 1
 573 3 477 3 434 3 c 0
 392 3 294 3 258 0 c 1
 258 47 l 1
 366 47 l 1
 366 274 l 1
 117 639 l 1
 19 639 l 1
 19 686 l 1
 54 683 144 683 184 683 c 0xb0
 229 683 326 683 367 686 c 1
 367 639 l 1
 282 639 l 1
 485 342 l 1
 672 617 l 2
 677 623 677 625 679 629 c 1
 653 639 626 639 603 639 c 1
 603 686 l 1
 640 683 696 683 735 683 c 2
 849 686 l 1
 849 639 l 1x20
EndSplineSet
EndChar

StartChar: Z
Encoding: 90 90 55
Width: 703
Flags: W
HStem: 0 51<231 371 371 473.5> 639 47<272 342 342 472>
VStem: 80 47<445 445> 598 47<284 284>
LayerCount: 2
Fore
SplineSet
645 284 m 1
 627 0 l 1
 96 0 l 2
 74 0 64 0 64 26 c 0
 64 37 64 40 72 52 c 2
 472 639 l 1
 342 639 l 2
 202 639 135 578 127 445 c 1
 80 445 l 1
 92 686 l 1
 606 686 l 2
 627 686 638 686 638 661 c 0
 638 650 638 649 630 637 c 2
 231 51 l 1
 371 51 l 2
 576 51 590 173 598 284 c 1
 645 284 l 1
EndSplineSet
EndChar

StartChar: a
Encoding: 97 97 56
Width: 526
Flags: W
HStem: -13 21G<61 110.5> -1 36<454.267 512> 78 50<217.072 288> 396 36<73 143.963>
LayerCount: 2
Fore
SplineSet
312 78 m 1x70
 219 59 150 45 71 -13 c 1xb0
 51 -13 28 -6 21 26 c 1
 82 124 182 217.98 182 313 c 0
 182 345.241886768 156 396 73 396 c 1
 73 432 l 1
 194 430 l 2
 224.991532946 429.487743257 236.685773552 418.827070009 252 391 c 2
 416 93 l 2
 433.046361279 62.025514261 469 35 512 35 c 1
 512 -1 l 1
 350 -1 l 1
 312 78 l 1x70
148 112 m 1
 186 122 261 126 288 128 c 1
 275 155 236 227 224 252 c 1
 201 216 163 138 148 112 c 1
EndSplineSet
EndChar

StartChar: b
Encoding: 98 98 57
Width: 515
Flags: W
HStem: -14 46<197.828 332.681> 214 28<237 259.224> 403 41<226.862 352.731> 414 36<23 76.6074>
VStem: 82 114<39.5552 374.349> 370 97<310.415 386.603> 385 107<76.04 164.581>
LayerCount: 2
Fore
SplineSet
370 231.904296875 m 1xec
 425.513671875 220.893554688 492 188.59375 492 125 c 0
 492 30 375 -14 239 -14 c 0
 148 -14 82 19 82 63 c 2
 82 364 l 2
 82 376 80 414 54 414 c 2
 23 414 l 1
 23 450 l 1xda
 83 447 140 448 196 451 c 1
 196 405 l 1
 226 430 260 444 306 444 c 0
 340 444 467 439 467 350 c 0
 467 297.091796875 415.091796875 257.724609375 370 240.381835938 c 1
 370 231.904296875 l 1xec
196 59 m 2
 196 47 219 32 251 32 c 0
 282 32 385 51 385 126 c 0xea
 385 171 295 214 237 214 c 1
 221 242 l 1
 331.833984375 274.971679688 370 325.010740108 370 350 c 0
 370 388 324 403 289 403 c 0xec
 260 403 197 384 196 326 c 2
 196 59 l 2
EndSplineSet
EndChar

StartChar: c
Encoding: 99 99 58
Width: 511
Flags: W
HStem: -6 40<231.705 367.599> 413 40<226.315 359.297>
VStem: 38 128<120.673 322.067>
LayerCount: 2
Fore
SplineSet
305 34 m 4
 404 34 400 135 438 123 c 4
 443.135199809 121.378357955 452 114 452 102 c 4
 452 96 450 92 447 87 c 4
 414.09639748 32.1606624659 370 -6 286 -6 c 0
 132 -6 38 89 38 222 c 0
 38 338 112 453 291 453 c 0
 347 453 406 450 454 373 c 1
 454 328 l 2
 454 300 448 293 427 293 c 0
 377 293 414 413 295 413 c 0
 166 413 166 283 166 227 c 0
 166 181 166 34 305 34 c 4
EndSplineSet
EndChar

StartChar: d
Encoding: 100 100 59
Width: 455
Flags: W
HStem: -10 40<198.754 288.509> 391 47<40 173.437>
VStem: 29 109<94.367 267.794> 328 99<94.8725 265.066>
LayerCount: 2
Fore
SplineSet
234 -10 m 4
 111 -10 29 77 29 179 c 0
 29 224 44 264 71 301 c 1
 155 336 l 1
 155 285 l 1
 144 257 138 220 138 187 c 0
 138 83 204 30 243 30 c 0
 297 30 328 90 328 187 c 0
 328 288 232.4921875 344.752929688 187 364 c 0
 161 375 117 391 40 391 c 1
 40 438 l 1
 92 436 181 438 181 438 c 1
 264 406 427 337 427 179 c 0
 427 70 333 -10 234 -10 c 4
EndSplineSet
EndChar

StartChar: e
Encoding: 101 101 60
Width: 511
Flags: W
HStem: -6 40<230.82 367.599> 210.997 30.7282<166.127 259.672> 413 40<226.81 359.297>
VStem: 38 128.127<122.555 210.997 241.726 322.065> 310 36<129 198.287 253.474 322>
LayerCount: 2
Fore
SplineSet
310 129 m 1
 310 182 309.022779567 200.304417855 273 203 c 2
 166.12669816 210.997321906 l 1
 167.306727824 153.876183371 179.477209189 34 305 34 c 0
 404 34 400 135 438 123 c 0
 443.135199809 121.378357955 452 114 452 102 c 0
 452 96 450 92 447 87 c 0
 414.09639748 32.1606624659 370 -6 286 -6 c 0
 132 -6 38 89 38 222 c 0
 38 338 112 453 291 453 c 0
 347 453 406 450 454 373 c 1
 454 328 l 2
 454 300 448 293 427 293 c 0
 377 293 414 413 295 413 c 0
 176.300094137 413 166.822418134 302.931086187 166.065666544 241.725555547 c 1
 273 249 l 2
 309.037311714 251.451517804 310 269 310 322 c 1
 346 322 l 5
 346 129 l 5
 310 129 l 1
EndSplineSet
EndChar

StartChar: f
Encoding: 102 102 61
Width: 444
Flags: W
HStem: -101 36<25 93.5834 198.973 284> 192.285 32.4297<196.31 286.613> 394 36<25 95.7231 195.882 353.701>
VStem: 96 100<-61.3434 192.285 224.715 393.604> 303.26 32.4307<111.555 175.941 241.059 305.445> 383 36<258 358.333>
LayerCount: 2
Fore
SplineSet
196.309570312 192.28515625 m 5
 196 -29 l 2
 195.960829041 -56.9999452012 208 -65 256 -65 c 2
 284 -65 l 1
 284 -101 l 1
 225 -98 186 -97 147 -97 c 0
 137 -97 105 -97 25 -101 c 1
 25 -65 l 1
 50 -65 l 2
 86 -65 96 -56 96 -31 c 2
 96 370 l 2
 96 395 86 394 50 394 c 2
 25 394 l 1
 25 430 l 1
 407 430 l 1
 419 258 l 1
 383 258 l 1
 375 366 369 394 283 394 c 2
 216 394 l 2
 193 394 195.93775668 385.999856509 196 359 c 2
 196.309570312 224.71484375 l 5
 230.809570312 224.71484375 l 6
 298 224.71484375 303.259765625 254.384765625 303.259765625 305.4453125 c 5
 335.690429688 305.4453125 l 5
 335.690429688 111.5546875 l 5
 303.259765625 111.5546875 l 5
 303.259765625 162.615234375 297 192.28515625 230.809570312 192.28515625 c 6
 196.309570312 192.28515625 l 5
EndSplineSet
EndChar

StartChar: g
Encoding: 103 103 62
Width: 500
Flags: W
HStem: -6 40<231.705 360.84> 209 69<305.59 397.279> 413 40<226.315 359.297>
VStem: 38 128<120.673 322.067> 414 54<84.6104 193.355>
LayerCount: 2
Fore
SplineSet
305 34 m 0
 365 34 414 96 414 142 c 0
 414 181 389 209 343 209 c 0
 319 209 300 188 277 139 c 1
 233 174 225 202 223 236 c 1
 253 267 284 278 316 278 c 0
 442 278 468 174 468 142 c 0
 468 56 385 -6 286 -6 c 0
 132 -6 38 89 38 222 c 0
 38 338 112 453 291 453 c 0
 347 453 406 450 454 373 c 1
 454 328 l 2
 454 300 448 293 427 293 c 0
 377 293 414 413 295 413 c 0
 166 413 166 283 166 227 c 0
 166 181 166 34 305 34 c 0
EndSplineSet
EndChar

StartChar: h
Encoding: 104 104 63
Width: 555
Flags: W
HStem: -165 58<251.553 348.582> 1 33<34 106 205 276> 319 59<251.744 364.948> 424 33<33 105 203 275>
VStem: 106 99<34 269.337 331 424>
LayerCount: 2
Fore
SplineSet
300 -107 m 0
 444 -107 476 319 310 319 c 0
 280 319 201.87890625 294.358398438 205 182 c 2
 205 34 l 1
 276 34 l 1
 276 -2 l 1
 235 1 223 1 177 1 c 0
 131 1 75 1 34 -2 c 1
 34 34 l 1
 106 34 l 1
 105 424 l 1
 33 424 l 1
 33 460 l 1
 74 457 130 457 176 457 c 0
 222 457 234 457 275 460 c 1
 275 424 l 1
 203 424 l 1
 203 331 l 1
 230 358 268 378 318 378 c 0
 457 378 524 246 524 128 c 0
 524 37 491.720460833 -34.7665708829 432 -98 c 0
 415 -116 365 -165 301 -165 c 0
 265 -165 249 -146 249 -135 c 0
 249 -122 267 -107 300 -107 c 0
EndSplineSet
EndChar

StartChar: i
Encoding: 105 105 64
Width: 326
Flags: W
HStem: 0 36<33 102.616 217.259 286> 409 36<33 102.707 217.046 286>
VStem: 103 114<37.0557 407.851>
LayerCount: 2
Fore
SplineSet
33 0 m 1
 33 36 l 1
 51 36 l 2
 108 36 102 41 103 69 c 2
 103 385 l 2
 103 407 96 409 50 409 c 2
 33 409 l 1
 33 445 l 1
 74 443 114 442 156 442 c 0
 199 442 243 443 286 445 c 1
 286 409 l 1
 270 409 l 2
 220 409 217 405 217 388 c 2
 217 59 l 2
 217 37 226 36 270 36 c 2
 286 36 l 1
 286 0 l 1
 243 2 199 3 156 3 c 2
 153 3 l 2
 138 3 101 3 33 0 c 1
EndSplineSet
EndChar

StartChar: j
Encoding: 106 106 65
Width: 326
Flags: W
HStem: -101 58<-26.3093 75.0179> 409 36<33 102.707 217.046 286>
VStem: 103 114<-7.05957 407.855>
LayerCount: 2
Fore
SplineSet
217 94 m 2
 217 -32 137.21484375 -101 51 -101 c 0
 7 -101 -39 -84 -34 -60 c 4
 -28.493235139 -33.5675286671 8 -43 40 -43 c 0
 72 -43 103 -5 103 76 c 2
 103 385 l 2
 103 407 96 409 50 409 c 2
 33 409 l 1
 33 445 l 1
 74 443 114 442 156 442 c 0
 199 442 243 443 286 445 c 1
 286 409 l 1
 270 409 l 2
 220 409 217 405.025051324 217 388 c 2
 217 94 l 2
EndSplineSet
EndChar

StartChar: k
Encoding: 107 107 66
Width: 607
Flags: W
HStem: -13 45<494.993 573.948> 0 36<37 106 209 278> 408 36<369 402.629 472.004 562> 650 36<37 104.228> 674 20G<37 214>
VStem: 106 108<36 196.448 237 648.19>
LayerCount: 2
Fore
SplineSet
286 239 m 1xac
 266 225 238 197 209 174 c 1
 209 36 l 1
 278 36 l 1
 278 0 l 1
 157 3 l 1
 37 0 l 1
 37 36 l 1
 106 36 l 1
 106 611 l 2
 106 650 99 650 37 650 c 1
 37 686 l 1x74
 214 694 l 1
 214 237 l 1
 403 397 l 5
 395 405 392 408 369 408 c 5
 369 444 l 1
 484 441 l 2
 510 441 535 441 562 444 c 1
 562 408 l 5
 495 408 486 401 472 390 c 6
 341 278 l 1
 424 232 424 148 463 91 c 0
 477.649167663 69.5896780316 510 32 534 32 c 0
 556 32 574 25 574 10 c 0
 574 -1 565 -9 544 -13 c 0
 523.488168542 -16.9070155158 474 -19 435 6 c 0
 399 29 353 77 336 129 c 0
 325.190932022 162.063031462 315 217 286 239 c 1xac
EndSplineSet
EndChar

StartChar: l
Encoding: 108 108 67
Width: 496
Flags: W
HStem: 0 38<29 102.797 218.042 376.35> 644 38<29 102.909 218.238 310>
VStem: 103 115<38.8423 642.712> 437 48<109.333 164>
LayerCount: 2
Fore
SplineSet
29 0 m 1
 29 38 l 1
 46 38 l 2
 109 38 102 40 103 69 c 2
 103 622 l 6
 103 643 96 644 47 644 c 6
 29 644 l 5
 29 682 l 5
 82 680 121 679 161 679 c 4
 211 679 260 680 310 682 c 5
 310 644 l 5
 290 644 l 6
 212 644 219 642 218 615 c 6
 218 59 l 2
 218 39 224 38 259 38 c 2
 285 38 l 2
 374 38 422 66 437 164 c 1
 485 164 l 1
 464 0 l 1
 29 0 l 1
EndSplineSet
EndChar

StartChar: m
Encoding: 109 109 68
Width: 786
Flags: W
HStem: 0 35<61.0393 149.474 290 338.363 451.184 500 638.83 726> 397 41<218.052 301.573 484.354 570.63>
VStem: 66 115<141.699 320.157> 342 105<38.1719 346.392> 608 114<139.517 328.66>
LayerCount: 2
Fore
SplineSet
640 58 m 0
 613.189393323 35.4790903912 706 36 726 36 c 1
 726 0 l 1
 531 0 l 1
 531 35 l 1
 582 77 608 150 608 224 c 0
 608 292 600 397 525 397 c 0
 484 397 447 336 447 292 c 2
 447 67 l 2
 447 54 458 35 487 35 c 2
 500 35 l 1
 500 0 l 1
 458 4 418 4 395 4 c 0
 372 4 332 4 290 0 c 1
 290 35 l 1
 304 35 l 2
 333 35 342 54 342 67 c 2
 342 247 l 2
 342 318 309 398 262 398 c 0
 194 398 181 294 181 228 c 0
 181 160 200 87 257 35 c 1
 257 0 l 1
 257 0 192 2 150 2 c 24
 115 2 61 -1 61 -1 c 1
 61 35 l 1
 97 35 168 44 147 62 c 0
 102.281139655 100.330451725 66 169 66 224 c 4
 66 338 149 436 272 436 c 0
 327 436 371 410 402 373 c 1
 437 410 484 438 546 438 c 0
 649 438 722 337 722 237 c 0
 722 166 690 100 640 58 c 0
EndSplineSet
EndChar

StartChar: n
Encoding: 110 110 69
Width: 571
Flags: W
HStem: 0 36<23 96.7262 154.4 228> 410 35<23 99 338 409.954 469.875 543>
VStem: 99 53<40.5776 361> 413 54<178 405.351>
LayerCount: 2
Fore
SplineSet
23 0 m 1
 23 36 l 1
 92 36 98 46 99 66 c 2
 99 409 l 5
 23 410 l 5
 23 445 l 1
 191 445 l 2
 204 445 213.2 444.4 224 430 c 2
 413 178 l 1
 413 370 l 2
 413 397 413 410 338 410 c 1
 338 445 l 1
 372 443 406 443 440 443 c 0
 474 443 509 443 543 445 c 1
 543 410 l 1
 476 410 468 400 467 380 c 2
 467 28 l 2
 467 10 461 0 440 0 c 0
 421 0 413.151972669 9.37017853207 406 19 c 2
 152 361 l 1
 152 66 l 2
 153 46 160 36 228 36 c 1
 228 0 l 1
 194 2 159 3 125 3 c 0
 91 3 57 2 23 0 c 1
EndSplineSet
EndChar

StartChar: o
Encoding: 111 111 70
Width: 575
Flags: W
HStem: -6 40<223.5 350.5 223.5 371> 417 36<262.5 308>
VStem: 32 128<185.5 251.5 185.5 284.5> 414 128<185.5 253>
LayerCount: 2
Fore
SplineSet
32 218 m 0
 32 351 123 453 287 453 c 0
 450 453 542 352 542 218 c 0
 542 95 455 -6 287 -6 c 0
 120 -6 32 94 32 218 c 0
160 229 m 0
 160 142 160 34 287 34 c 0
 414 34 414 142 414 229 c 0
 414 277 414 332 393 366 c 0
 371 401 329 417 287 417 c 0
 238 417 196 396 177 359 c 0
 160 325 160 274 160 229 c 0
EndSplineSet
EndChar

StartChar: p
Encoding: 112 112 71
Width: 639
Flags: W
HStem: -195 36<35 105 219 288> -5 36<271.735 396.068> 406 36<35 102.812> 409 41<269.652 408.843>
VStem: 105 114<-159 40 71.3134 368.872> 471 128<123.014 323.944>
LayerCount: 2
Fore
SplineSet
35 -159 m 1xdc
 105 -159 l 1
 105 371 l 6
 105 400 96 406 46 406 c 6
 35 406 l 5
 35 442 l 1xec
 213 450 l 1
 213 401 l 1
 241 421 290 450 366 450 c 0
 499 450 599 363 599 223 c 0
 599 81 492 -5 349 -5 c 0
 294 -5 257 11 219 40 c 1
 219 -159 l 1
 288 -159 l 1
 288 -195 l 1
 244 -193 201 -192 157 -192 c 0
 108 -192 72 -194 35 -195 c 1
 35 -159 l 1xdc
218 113 m 0
 218 81 274 31 337 31 c 0
 391 31 471 69 471 224 c 0
 471 338 422 409 348 409 c 0xdc
 284 409 235 370 223 350 c 0
 219 344 219 337 219 330 c 2
 219 120 l 2
 219 118 218 116 218 113 c 0
EndSplineSet
EndChar

StartChar: q
Encoding: 113 113 72
Width: 603
Flags: W
HStem: -144 128<431.769 527.189> -6 40<245.072 339.414> 85 36<244.745 323.063> 417 36<219.713 357.876>
VStem: 32 128<119.676 322.065> 414 128<120.296 322.113>
LayerCount: 2
Fore
SplineSet
32 218 m 0
 32 351 123 453 287 453 c 0
 450 453 542 352 542 218 c 0
 542 132.038160596 499.506702919 56.821752637 416.568217506 19.3175415392 c 1
 441.535847279 -7.36183452553 454.649860058 -16.0000000309 486 -16 c 0
 559 -16 532 4 555 15 c 0
 557 16 559 16 561 16 c 0
 570 16 578 10 578 -7 c 0
 578 -62 544 -144 468 -144 c 0
 387.471407892 -144 370.20004264 -57.0213130726 354.279466855 0.00167904805751 c 1
 333.53153112 -3.92171141128 311.099138707 -6 287 -6 c 0
 120 -6 32 94 32 218 c 0
340.374406748 42.3550042234 m 1
 331.788364178 59.5481500148 314.915382085 85 284 85 c 0
 256 85 241 71 241 58 c 0
 241 51.5693635769 242.41621048 45.1857497674 244.494917266 38.9623630546 c 1
 256.788025518 35.742223515 270.869649757 33.9999998584 287 34 c 0
 308.104196565 34 325.701407991 36.982318071 340.374406748 42.3550042234 c 1
378.083618751 67.0202734459 m 1
 414 105.740032513 414 171.893939215 414 229 c 0
 414 277 414 332 393 366 c 0
 371 401 329 417 287 417 c 0
 238 417 196 396 177 359 c 0
 160 325 160 274 160 229 c 0
 160 168.218243578 161 96 203.307757779 59.8942585771 c 1
 209.913348685 113.277371171 263.367261029 121.000000167 284 121 c 0
 331.193748579 121 360.020418949 87.1659085622 378.083618751 67.0202734459 c 1
EndSplineSet
EndChar

StartChar: r
Encoding: 114 114 73
Width: 511
Flags: W
HStem: -1 36<12 59.2979 176.611 231> 2 54<430.663 502.308> 208 36<203 265.993> 403 41<212.56 310.166> 414 36<6 65.2332>
VStem: 67 101<42.5148 366.556 386 413.053> 324 108<284.169 391.908>
LayerCount: 2
Fore
SplineSet
342 219 m 1x36
 385 197 396 167 408 127 c 0
 411 115 414.808548002 102.914812662 418 96 c 0
 430 70 457 56 474 56 c 0
 491 56 503 43 503 28 c 0
 503 16 494 2 474 2 c 0
 443 2 409 -3 379 16 c 0
 351 33 318 68 304 110 c 0
 284 170 282 208 203 208 c 1
 203 244 l 1
 302 261 324 300 324 332 c 0
 324 402 281 403 262 403 c 0x76
 220 403 168 363 168 311 c 2
 168 88 l 2
 168 61 172 35 231 35 c 1
 231 -1 l 1
 120 3 l 1
 12 -1 l 1
 12 35 l 1
 63 35 67 62 67 88 c 2
 67 385 l 2
 67 397 62 414 35 414 c 2
 6 414 l 1
 6 450 l 1xae
 66 447 111 448 168 451 c 1
 168 386 l 1
 202 429 251 444 290 444 c 0
 338 444 432 414 432 332 c 0
 432 289 396 246 342 219 c 1x36
EndSplineSet
EndChar

StartChar: s
Encoding: 115 115 74
Width: 453
Flags: W
HStem: -6 36<220 241 177 245.5> 421 32<211.5 242 207 258.5>
VStem: 38 48 38 71<335.5 387.5> 339 47 344 71<67.5 134.5>
LayerCount: 2
Fore
SplineSet
38 22 m 2xe4
 38 131 l 2
 38 154 38 160 62 160 c 0
 76 160 81 160 86 146 c 0
 98 103 124 30 230 30 c 0
 252 30 344 30 344 105 c 0xe4
 344 164 269 177 233 183 c 0
 156 197 118 203 78 238 c 0
 58 255 38 282 38 322 c 0
 38 453 192 453 222 453 c 0
 262 453 297 447 323 434 c 1
 362 453 364 453 368 453 c 0
 386 453 386 444 386 425 c 2
 386 345 l 2
 386 322 386 317 362 317 c 0
 341 317 340 322 339 337 c 0
 334 392 296 421 221 421 c 0
 202 421 109 421 109 359 c 0xd8
 109 312 174 301 211 294 c 0
 289 281 321 275 360 246 c 0
 395 218 415 183 415 140 c 0
 415 -6 261 -6 230 -6 c 0
 210 -6 158 -6 112 26 c 0
 109 24 87 9 86 9 c 0
 65 -6 63 -6 56 -6 c 0
 38 -6 38 3 38 22 c 2xe4
EndSplineSet
EndChar

StartChar: t
Encoding: 116 116 75
Width: 484
Flags: W
HStem: -8 40<228.69 310.394> 377 59<81.4594 246 290.999 414.987>
VStem: 21 36<266 345.355> 72 113<79.6307 237.589> 422 34<447.373 467.029>
LayerCount: 2
Fore
SplineSet
246 377 m 1
 162 377 l 2
 83 377 65 362 57 266 c 1
 21 266 l 1
 35 436 l 1
 358 436 l 2
 374 436 412 436 422 471 c 1
 456 466 l 1
 434 362 l 1
 397 376 392 377 368 377 c 0
 263 377 185 269 185 172 c 0
 185 86 230 32 267 32 c 4
 305 32 350 84 374 147 c 5
 412 121 430 99 436 62 c 1
 362 -5 287 -8 255 -8 c 0
 150 -8 72 54 72 156 c 0
 72 252 164 345 246 377 c 1
EndSplineSet
EndChar

StartChar: u
Encoding: 117 117 76
Width: 556
Flags: W
HStem: -11 37<210.089 301.798> -1 36<464.393 535> 405 36<58 116.868 291 349.562>
VStem: 58 105<80.7503 297.34> 362 101<37.0039 56 90.8438 394.676>
LayerCount: 2
Fore
SplineSet
365 -1 m 1x78
 365 56 l 1
 333 18 289 -11 246 -11 c 0
 91 -11 58 101 58 183 c 0
 58 259 84.3901855264 317.780371053 117 383 c 4
 120 389 107 405 58 405 c 1
 58 441 l 1
 244 442 l 1
 244 442 163 300 163 185 c 0
 163 109 192 26 251 26 c 0xb8
 302 26 362 78 362 198 c 6
 362 343 l 2
 362 375 355 405 291 405 c 1
 291 441 l 1
 463 442 l 1
 463 68 l 6
 463 36 471 35 535 35 c 5
 535 -1 l 1
 365 -1 l 1x78
EndSplineSet
EndChar

StartChar: v
Encoding: 118 118 77
Width: 564
Flags: W
HStem: -11 37<235.942 334.773> 406 36<32 90.0877 283 361.889>
VStem: 104 101<66.8124 395.23> 410 112<147.421 353.788>
LayerCount: 2
Fore
SplineSet
289 -11 m 0
 135 -11 104 85 104 163 c 2
 104 310 l 2
 104 372 104 406 32 406 c 1
 32 442 l 1
 205 442 l 1
 205 119 l 2
 205 80 223 26 289 26 c 0
 355 26 410 118 410 269 c 0
 410 372 378 404 283 406 c 1
 283 442 l 1
 357 442 l 2
 462 442 522 352 522 269 c 0
 522 145 458 -11 289 -11 c 0
EndSplineSet
EndChar

StartChar: w
Encoding: 119 119 78
Width: 786
Flags: W
HStem: 2 38<221.629 299.517 487.178 569.512> 404 38<61.0465 128.822 289 338.704 489 552.289>
VStem: 66 115<117.38 315.537> 342 105<91.6077 400.562> 607 115<117.607 336.8>
LayerCount: 2
Fore
SplineSet
127 376 m 1
 140 394 97 403 61 403 c 1
 61 439 l 1
 61 439 125 436 160 436 c 24
 202 436 247 438 247 438 c 1
 247 402 l 1
 202 350 181 278 181 210 c 0
 181 144 194 40 262 40 c 0
 309 40 342 120 342 191 c 2
 342 371 l 2
 342 384 333 404 304 404 c 2
 289 404 l 1
 289 442 l 1
 331 442 395 442 395 442 c 1
 436 441 446 404 446 379 c 2
 447 146 l 2
 447 102 484 41 525 41 c 0
 600 41 607 146 607 214 c 4
 607 339 582 401 489 402 c 1
 489 442 l 1
 554 442 l 2
 647 442 722 355 722 231 c 0
 722 101 649 0 546 0 c 0
 484 0 437 28 402 65 c 1
 371 28 327 2 272 2 c 0
 149 2 66 90 66 224 c 4
 66 289 98 341 127 376 c 1
EndSplineSet
EndChar

StartChar: x
Encoding: 120 120 79
Width: 607
Flags: W
HStem: 0 36<22 22> 409 36<27 41 27 27>
LayerCount: 2
Fore
SplineSet
22 0 m 1
 22 36 l 1
 102 37 111 55 128 73 c 2
 253 213 l 1
 110 383 l 2
 89 408 85 409 41 409 c 2
 27 409 l 1
 27 445 l 1
 64 443 100 442 137 442 c 0
 177 442 217 443 257 445 c 1
 257 409 l 1
 232 406 l 1
 217 401 l 1
 226 388 236 377 316 283 c 1
 386 366 405 378 405 390 c 0
 405 404 383 408 370 409 c 1
 370 445 l 1
 404 443 439 442 473 442 c 0
 504 442 535 443 565 445 c 1
 565 409 l 1
 491 408 478 393 460 373 c 2
 347 246 l 1
 347 245 l 1
 501 63 l 2
 522 39 520 36 578 36 c 2
 585 36 l 1
 585 0 l 1
 549 2 514 3 478 3 c 0
 437 3 396 2 355 0 c 1
 355 36 l 1
 383 37 391 41 391 47 c 0
 391 52 380 63 284 176 c 1
 207 90 181 65 181 55 c 0
 181 48 187 38 217 36 c 1
 217 0 l 1
 183 2 149 3 115 3 c 0
 84 3 53 2 22 0 c 1
EndSplineSet
EndChar

StartChar: y
Encoding: 121 121 80
Width: 607
Flags: W
HStem: -195 48<179 248> 409 36<12 12 12 20>
VStem: 248 109<-147 -22 -22 -21 -147 -8.5>
LayerCount: 2
Fore
SplineSet
12 409 m 1
 12 445 l 1
 49 443 86 442 124 442 c 0
 165 442 207 443 248 445 c 1
 248 409 l 1
 243 409 l 2
 208 409 196 407 196 397 c 0
 196 392 199 385 203 375 c 2
 336 71 l 1
 462 361 l 2
 467 372 471 380 471 387 c 0
 471 405 442 408 423 409 c 1
 423 445 l 1
 453 443 484 442 514 442 c 0
 540 442 567 443 593 445 c 1
 593 409 l 1
 527 408 527 389 512 355 c 2
 364 16 l 2
 358 2 357 1 357 -21 c 2
 357 -147 l 1
 426 -147 l 1
 426 -195 l 1
 384 -193 341 -192 299 -192 c 0
 275 -192 251 -192 179 -195 c 1
 179 -147 l 1
 248 -147 l 1
 248 -22 l 2
 248 5 247 2 234 33 c 2
 80 387 l 2
 70 409 63 409 20 409 c 2
 12 409 l 1
EndSplineSet
EndChar

StartChar: z
Encoding: 122 122 81
Width: 511
Flags: W
HStem: 0 40<172 258 258 324> 408 36<183.5 235 235 320>
VStem: 32 430<11 202>
LayerCount: 2
Fore
SplineSet
462 202 m 1
 444 0 l 1
 64 0 l 2
 45 0 32 0 32 22 c 0
 32 31 32 33 41 44 c 2
 320 408 l 1
 235 408 l 2
 132 408 101 372 95 269 c 1
 48 269 l 1
 60 444 l 1
 427 444 l 2
 445 444 459 444 459 423 c 0
 459 414 457 412 449 401 c 2
 172 40 l 1
 258 40 l 2
 390 40 406 101 415 202 c 1
 462 202 l 1
EndSplineSet
EndChar

StartChar: dieresis
Encoding: 168 168 82
Width: 320
Flags: W
HStem: 484 129<27.9586 120.5 192.321 285.375>
VStem: 11 126<500.49 596.603> 175 127<500.49 596.603>
LayerCount: 2
Fore
SplineSet
238 484 m 0
 203 484 175 515 175 549 c 0
 175 579 199 613 239 613 c 0
 275 613 302 582 302 549 c 0
 302 518 279 484 238 484 c 0
74 484 m 0
 38 484 11 515 11 549 c 0
 11 579 34 613 75 613 c 0
 110 613 137 582 137 549 c 0
 137 518 114 484 74 484 c 0
EndSplineSet
EndChar

StartChar: tonos
Encoding: 900 900 83
Width: 167
Flags: W
LayerCount: 2
Fore
SplineSet
153 618 m 0
 145 607 131 590 105 555 c 2
 54 486 l 2
 39 469 16 494 16 503 c 0
 16 505 75 670 78 674 c 0
 80 679 91 700 114 700 c 0
 122 700 164 694 164 651 c 0
 164 639 162 631 153 618 c 0
EndSplineSet
EndChar

StartChar: dieresistonos
Encoding: 901 901 84
Width: 628
Flags: W
HStem: 498 156<92.9875 198.536 434.988 541.012>
VStem: 68 155<522.792 629.208> 410 156<522.792 628.64>
LayerCount: 2
Fore
SplineSet
68 576 m 4
 68 615 100 654 146 654 c 4
 187 654 223 621 223 576 c 4
 223 533 189 498 146 498 c 4
 105 498 68 531 68 576 c 4
410 576 m 4
 410 623 450 654 488 654 c 4
 529 654 566 621 566 576 c 4
 566 537 534 498 488 498 c 4
 447 498 410 531 410 576 c 4
245 500 m 5
 248 514 252 527 280 636 c 4
 285 656 292 711 341 711 c 4
 370 711 407 687 407 651 c 4
 407 622 391 613 265 489 c 5
 264 489 l 5
 245 500 l 5
EndSplineSet
EndChar

StartChar: Alphatonos
Encoding: 902 902 85
Width: 710
Flags: W
LayerCount: 2
Fore
SplineSet
665 -1 m 1
 647 3 519 2 507 -1 c 0
 487 -1 475 47 470 62 c 0
 463 84 455 108 448 128 c 1
 319 100 218 75 89 -20 c 1
 63 -20 34 -11 25 30 c 1
 77 115 142 212 195 300 c 0
 249 389 286 461 286 493 c 0
 286 511 281 526 269 545 c 0
 238 590 183 613 115 613 c 1
 115 684 l 1
 189 680 251 679 333 684 c 1
 602 80 l 2
 609 65 621 67 657 67 c 2
 691 67 l 1
 691 -1 l 1
 665 -1 l 1
191 163 m 1
 267 187 366 201 418 205 c 1
 393 259 354 344 333 389 c 1
 286 314 240 238 191 163 c 1
EndSplineSet
EndChar

StartChar: anoteleia
Encoding: 903 903 86
Width: 361
Flags: W
HStem: 289 156<161 200.5 161 203>
VStem: 102 156<347.5 389.5 347.5 390.5>
LayerCount: 2
Fore
SplineSet
102 367 m 0
 102 414 142 445 180 445 c 0
 221 445 258 412 258 367 c 0
 258 328 226 289 180 289 c 0
 139 289 102 322 102 367 c 0
EndSplineSet
EndChar

StartChar: Epsilontonos
Encoding: 904 904 87
Width: 722
Flags: W
LayerCount: 2
Fore
SplineSet
621 473 m 0
 596 473 594 484 588 502 c 0
 562 592 505 638 411 638 c 0
 363 638 210 613 192 387 c 1
 382 396 l 2
 463 400 466 407 466 497 c 1
 527 497 l 1
 527 208 l 1
 466 208 l 1
 466 298 462 306 382 310 c 2
 190 318 l 1
 200 71 363 45 412 45 c 0
 509 45 550 84 604 158 c 0
 613 171 627 174 642 166 c 0
 665 152 662 140 652 121 c 0
 605 34 533 -22 401 -22 c 0
 216 -22 56 136 56 342 c 0
 56 545 215 705 401 705 c 0
 492 705 583 700 655 583 c 1
 655 514 l 2
 655 494 654 473 621 473 c 0
EndSplineSet
EndChar

StartChar: Etatonos
Encoding: 905 905 88
Width: 900
Flags: W
HStem: 0 47<39 147> 333 47<289 610 289 610> 639 47<39 147 39 39>
VStem: 147 142<47 333 47 380 380 639> 610 142<47 333 333 333 380 639 47 639>
LayerCount: 2
Fore
SplineSet
860 0 m 1
 822 3 724 3 681 3 c 0
 638 3 540 3 502 0 c 1
 502 47 l 1
 610 47 l 1
 610 333 l 1
 289 333 l 1
 289 47 l 1
 397 47 l 1
 397 0 l 1
 359 3 261 3 218 3 c 0
 175 3 77 3 39 0 c 1
 39 47 l 1
 147 47 l 1
 147 639 l 1
 39 639 l 1
 39 686 l 1
 77 683 175 683 218 683 c 0
 261 683 359 683 397 686 c 1
 397 639 l 1
 289 639 l 1
 289 380 l 1
 610 380 l 1
 610 639 l 1
 502 639 l 1
 502 686 l 1
 540 683 638 683 681 683 c 0
 724 683 822 683 860 686 c 1
 860 639 l 1
 752 639 l 1
 752 47 l 1
 860 47 l 1
 860 0 l 1
EndSplineSet
EndChar

StartChar: Iotatonos
Encoding: 906 906 89
Width: 436
Flags: W
HStem: 0 47<33 147> 639 47<33 147 33 33>
VStem: 147 142<47 639 47 639>
LayerCount: 2
Fore
SplineSet
403 0 m 1
 362 3 264 3 218 3 c 0
 172 3 74 3 33 0 c 1
 33 47 l 1
 147 47 l 1
 147 639 l 1
 33 639 l 1
 33 686 l 1
 74 683 172 683 218 683 c 0
 264 683 362 683 403 686 c 1
 403 639 l 1
 289 639 l 1
 289 47 l 1
 403 47 l 1
 403 0 l 1
EndSplineSet
EndChar

StartChar: Omicrontonos
Encoding: 908 908 90
Width: 864
Flags: W
HStem: -11 42<401.5 458 401.5 546> 657 40<401.5 463>
VStem: 64 153<311 386 311 444> 646 153<319 388>
LayerCount: 2
Fore
SplineSet
799 339 m 0
 799 134 661 -11 431 -11 c 0
 204 -11 64 132 64 339 c 0
 64 549 203 697 432 697 c 0
 654 697 799 555 799 339 c 0
646 354 m 0
 646 422 642 499 604 563 c 0
 564 629 495 657 431 657 c 0
 372 657 305 632 264 571 c 0
 220 503 217 418 217 354 c 0
 217 268 225 197 258 135 c 0
 299 59 372 31 431 31 c 0
 485 31 555 53 600 126 c 0
 642 195 646 284 646 354 c 0
EndSplineSet
EndChar

StartChar: Upsilontonos
Encoding: 910 910 91
Width: 778
Flags: W
LayerCount: 2
Fore
SplineSet
388 530 m 1
 375 468 373 468 372 468 c 1
 377 490 381 512 388 533 c 2
 389 536 l 2
 414 617 467 702 572 705 c 0
 690 708 722 590 722 535 c 0
 722 500 709 436 631 436 c 0
 584 436 570 471 570 495 c 0
 570 529 594 550 629 553 c 0
 639 553 648 552 648 561 c 0
 648 576 568 626 508 562 c 0
 440 490 451 323 450 231 c 0
 450 218 447 106 451 77 c 1
 452 75 l 2
 459 66 478 68 531 68 c 2
 571 68 l 1
 571 0 l 1
 540 0 l 2
 523 3 256 3 238 0 c 2
 207 0 l 1
 207 68 l 1
 247 68 l 2
 300 68 319 67 325 75 c 2
 326 76 l 1
 330 106 328 203 328 220 c 0
 328 302 327 368 327 377 c 0
 317 523 268 593 197 593 c 0
 178 593 128 583 123 539 c 0
 120 518 113 508 90 507 c 0
 72 507 55 513 55 539 c 0
 55 599 91 693 177 704 c 0
 280 717 347 645 388 530 c 1
EndSplineSet
EndChar

StartChar: Omegatonos
Encoding: 911 911 92
Width: 1000
Flags: W
HStem: -22 64<270.178 408.718 590.788 728.404> 517 47<371 429.613 568.388 628> 643 62<274.522 355.202 643.798 724.408>
VStem: 55 137<193.313 481.362> 440 118<70.8734 101 481 512.785> 806 138<197.111 483.284>
LayerCount: 2
Fore
SplineSet
628 517 m 1
 628 565 l 1
 576 560 515 561 492 561 c 0
 465 561 419 561 371 564 c 1
 371 517 l 1
 397 517 422 517 430 513 c 0
 438.809086218 508.595456891 440 493 440 481 c 2
 440 101 l 2
 440 98 440 95 440 92 c 0
 436 56 326 42 321 42 c 0
 253 42 192 143 192 345 c 0
 192 592 282 643 326 643 c 0
 342 643 357 656 357 675 c 0
 357 700 330 705 323 705 c 0
 171 705 55 541 55 341 c 0
 55 148 159 -22 313 -22 c 0
 349 -22 442 -15 500 64 c 1
 531 23 586 -22 686 -22 c 0
 839 -22 944 149 944 341 c 0
 944 424 924 511 877 583 c 0
 828 656 758 705 676 705 c 0
 669 705 642 700 642 675 c 0
 642 656 657 643 673 643 c 0
 717 643 806 594 806 345 c 0
 806 144 745 42 678 42 c 0
 644 42 601 51 570 78 c 0
 559 87 558 89 558 101 c 2
 558 481 l 2
 558 493 559.190429688 508.595703125 568 513 c 0
 576.00017736 516.99964526 602 517 628 517 c 1
EndSplineSet
EndChar

StartChar: iotadieresistonos
Encoding: 912 912 93
Width: 318
Flags: W
HStem: 0 36<33 102.616 217.259 286> 409 36<33 102.707 217.046 286> 498 156<1.98755 107.536 204.988 311.002>
VStem: -23 155<522.792 629.208> 103 114<37.0557 407.851> 180 155<522.792 629.625>
LayerCount: 2
Fore
SplineSet
238 484 m 4xe0
 203 484 175 515 175 549 c 4
 175 579 199 613 239 613 c 4
 275 613 302 582 302 549 c 4
 302 518 279 484 238 484 c 4xe0
74 484 m 4
 38 484 11 515 11 549 c 4
 11 579 34 613 75 613 c 4
 110 613 137 582 137 549 c 4
 137 518 114 484 74 484 c 4
33 0 m 1
 33 36 l 1
 51 36 l 2
 108 36 102 41 103 69 c 2
 103 385 l 2
 103 407 96 409 50 409 c 2
 33 409 l 1
 33 445 l 1
 74 443 114 442 156 442 c 0
 199 442 243 443 286 445 c 1
 286 409 l 1
 270 409 l 2
 220 409 217 405 217 388 c 2
 217 59 l 2xe8
 217 37 226 36 270 36 c 2
 286 36 l 1
 286 0 l 1
 243 2 199 3 156 3 c 2
 153 3 l 2
 138 3 101 3 33 0 c 1
EndSplineSet
EndChar

StartChar: Alpha
Encoding: 913 913 94
Width: 710
Flags: W
HStem: -20 21G<76 153.5> -1 47<608.993 691> 637 47<115 215.452>
LayerCount: 2
Fore
SplineSet
665 -1 m 2x60
 647 -1 530.581752298 -4.3431571119 519 0 c 0
 495 9 474.794070759 46.9329204703 470 62 c 0
 463 84 455 108 448 128 c 1
 319 100 218 75 89 -20 c 1xa0
 63 -20 34 -11 25 30 c 1
 77 115 142 212 195 300 c 0
 249 389 286 461 286 493 c 0
 286 511 281 550 269 569 c 0
 238 614 183 637 115 637 c 1
 115 684 l 1
 189 680 251 680 333 685 c 1
 602 80 l 2
 609 65 621 46 657 46 c 2
 691 46 l 1
 691 -1 l 1
 665 -1 l 2x60
172 154 m 1
 248 178 373 183 425 187 c 1
 400 241 348 358 327 403 c 1
 280 328 221 229 172 154 c 1
EndSplineSet
EndChar

StartChar: Beta
Encoding: 914 914 95
Width: 774
Flags: W
HStem: -22 55<275.003 453.417> 339 35<369 391.717> 638 56<24 132 348.094 506.031>
VStem: 132 132<82 561.366 620 644> 548 129<474.854 598.728> 590 131<130.031 267.619>
LayerCount: 2
Fore
SplineSet
132 644 m 9xf4
 24 644 l 1
 24 691 l 1
 107 687 184 687 264 692 c 1
 264 620 l 1
 306 654 365 694 455 694 c 0
 553 694 677 651 677 552 c 0xf8
 677 466 606 408 539 364 c 1
 630 339 721 294 721 191 c 4
 721 52 546 -22 326 -22 c 0
 177 -22 132 33.3646562132 132 92 c 2
 132 644 l 9xf4
331 374 m 1
 510 412 548 485 548 542 c 4xf8
 548 599 498 638 423 638 c 0
 371 638 309 610 265 531 c 1
 264 82 l 2
 264 82 264 33 332 33 c 0
 385 33 590 63 590 192 c 0xf4
 590 324 460 339 369 339 c 1
 331 374 l 1
EndSplineSet
EndChar

StartChar: Gamma
Encoding: 915 915 96
Width: 692
Flags: W
HStem: -97 44<39 147 289 424> 439 21G<588.5 643> 633 47<39 147 289 515.847>
VStem: 147 142<-53 633> 596 47<439 493.419>
LayerCount: 2
Fore
SplineSet
643 439 m 1
 596 439 l 1
 581 556 562 633 405 633 c 2
 289 633 l 1
 289 -53 l 5
 424 -53 l 5
 424 -100 l 5
 380 -97 271 -97 222 -97 c 4
 178 -97 77 -97 39 -100 c 5
 39 -53 l 5
 147 -53 l 5
 147 633 l 1
 39 633 l 1
 39 680 l 1
 612 680 l 1
 643 439 l 1
EndSplineSet
EndChar

StartChar: Epsilon
Encoding: 917 917 97
Width: 831
Flags: W
HStem: -11 47<451 540.5 451 559.5> 650 47<461 500 341.5 541>
VStem: 64 153<298 371 298 445.5> 717 49
LayerCount: 2
Fore
SplineSet
490 36 m 0
 587 36 662.855722656 91.6804882808 715 167 c 0
 724 180 736 183 746 177 c 0
 754.445325891 171.932804465 762 161 752 142 c 0
 705 55 598 -11 466 -11 c 0
 217 -11 64 138 64 343 c 0
 64 548 217 697 466 697 c 0
 534 697 674 668 766 569 c 1
 766 454 l 2
 766 428 765 426 739 426 c 0
 716 426 715.283216414 428.046887064 712 447 c 0
 690 574 595 650 487 650 c 0
 254.322792191 650 222.144401018 481.530413015 217.707245047 382.293625925 c 1
 453 396 l 2
 533.959792688 400.716104428 537 407 537 497 c 1
 598 497 l 1
 598 208 l 1
 537 208 l 1
 537 298 532.962617121 306.167925697 453 310 c 2
 217.211427588 321.299771841 l 1
 219.370424786 225.994652433 242.905102868 36 490 36 c 0
EndSplineSet
EndChar

StartChar: Zeta
Encoding: 918 918 98
Width: 703
Flags: W
HStem: 0 51<231 371 371 473.5> 639 47<272 342 342 472>
VStem: 80 47<445 445> 598 47<284 284>
LayerCount: 2
Fore
SplineSet
645 284 m 1
 627 0 l 1
 96 0 l 2
 74 0 64 0 64 26 c 0
 64 37 64 40 72 52 c 2
 472 639 l 1
 342 639 l 6
 202 639 135 578 127 445 c 5
 80 445 l 5
 92 686 l 5
 606 686 l 2
 627 686 638 686 638 661 c 0
 638 650 638 649 630 637 c 2
 231 51 l 1
 371 51 l 2
 576 51 590 173 598 284 c 1
 645 284 l 1
EndSplineSet
EndChar

StartChar: Eta
Encoding: 919 919 99
Width: 900
Flags: W
HStem: 0 47<39 147> 333 47<289 610 289 610> 639 47<39 147 39 39>
VStem: 147 142<47 333 47 380 380 639> 610 142<47 333 333 333 380 639 47 639>
LayerCount: 2
Fore
SplineSet
860 0 m 1
 822 3 724 3 681 3 c 0
 638 3 540 3 502 0 c 1
 502 47 l 1
 610 47 l 1
 610 333 l 1
 289 333 l 1
 289 47 l 1
 397 47 l 1
 397 0 l 1
 359 3 261 3 218 3 c 0
 175 3 77 3 39 0 c 1
 39 47 l 1
 147 47 l 1
 147 639 l 1
 39 639 l 1
 39 686 l 1
 77 683 175 683 218 683 c 0
 261 683 359 683 397 686 c 1
 397 639 l 1
 289 639 l 1
 289 380 l 1
 610 380 l 1
 610 639 l 1
 502 639 l 1
 502 686 l 1
 540 683 638 683 681 683 c 0
 724 683 822 683 860 686 c 1
 860 639 l 1
 752 639 l 1
 752 47 l 1
 860 47 l 1
 860 0 l 1
EndSplineSet
EndChar

StartChar: Theta
Encoding: 920 920 100
Width: 894
Flags: W
HStem: -11 38<351.801 541.774> 304 81<207.176 685.826> 661 36<357.032 535.82>
VStem: 64 142.687<214.449 304 385 469.524> 686.337 142.663<216.051 304 385 464.685>
LayerCount: 2
Fore
SplineSet
829 340 m 0
 829 138 690 -11 446 -11 c 0
 207 -11 64 134 64 340 c 0
 64 537 196 697 447 697 c 0
 691 697 829 542 829 340 c 0
686.337497723 304 m 1
 206.686539419 304 l 1
 208.950997839 249.277244322 217.854818528 187.328281966 248 136 c 0
 301 46 390 27 446 27 c 0
 512 27 587 51 634 118 c 0
 673.602905405 174.92917652 683.934641101 244.792125701 686.337497723 304 c 1
207.176024034 385 m 1
 685.826423239 385 l 1
 682.285026744 448.708473298 670.043159129 507.469386301 640 557 c 0
 596 629 520 661 446 661 c 0
 379 661 302 634 254 559 c 0
 222.076548823 507.124391838 210.535232347 445.057716325 207.176024034 385 c 1
EndSplineSet
EndChar

StartChar: Iota
Encoding: 921 921 101
Width: 436
Flags: W
HStem: 0 47<33 147> 639 47<33 147 33 33>
VStem: 147 142<47 639 47 639>
LayerCount: 2
Fore
SplineSet
403 0 m 1
 362 3 264 3 218 3 c 0
 172 3 74 3 33 0 c 1
 33 47 l 1
 147 47 l 1
 147 639 l 1
 33 639 l 1
 33 686 l 1
 74 683 172 683 218 683 c 0
 264 683 362 683 403 686 c 1
 403 639 l 1
 289 639 l 1
 289 47 l 1
 403 47 l 1
 403 0 l 1
EndSplineSet
EndChar

StartChar: Kappa
Encoding: 922 922 102
Width: 901
Flags: W
HStem: 0 47<39 147> 639 47<39 147 39 39>
VStem: 147 142<47 257 47 319 319 639>
LayerCount: 2
Fore
SplineSet
852 0 m 1
 815 3 746 3 706 3 c 0
 661 3 571 3 530 0 c 1
 530 47 l 1
 565 47 585 47 603 55 c 1
 600 61 600 63 595 69 c 2
 389 340 l 1
 289 257 l 1
 289 47 l 1
 397 47 l 1
 397 0 l 1
 359 3 261 3 218 3 c 0
 175 3 77 3 39 0 c 1
 39 47 l 1
 147 47 l 1
 147 639 l 1
 39 639 l 1
 39 686 l 1
 77 683 175 683 218 683 c 0
 261 683 359 683 397 686 c 1
 397 639 l 1
 289 639 l 1
 289 319 l 1
 659 628 l 1
 650 631 662 630 646 634 c 0
 621 639 601 639 588 639 c 1
 588 686 l 1
 624 683 696 683 734 683 c 0
 739 683 796 683 836 686 c 1
 836 639 l 1
 819 639 l 2
 789 639 747 639 725 621 c 2
 485 421 l 1
 755 67 l 2
 767 51 770 47 823 47 c 2
 852 47 l 1
 852 0 l 1
EndSplineSet
EndChar

StartChar: Lambda
Encoding: 923 923 103
Width: 806
Flags: W
HStem: 0 47<40 133.428 431 527 679 765> 637 47<223 302.487>
LayerCount: 2
Fore
SplineSet
223 637 m 1
 223 684 l 1
 296 680 359 680 436 684 c 1
 679 47 l 1
 765 47 l 1
 765 0 l 1
 730 3 648 3 609 3 c 0
 564 3 472 3 431 0 c 1
 431 47 l 1
 527 47 l 1
 355 499 l 1
 192 72 l 1
 188 60 l 1
 188 47 278 47 278 47 c 1
 278 0 l 1
 241 3 186 3 148 3 c 0
 109 3 72 1 40 0 c 1
 40 47 l 1
 56 47 77 47 95 49 c 0
 126 53 127.767621856 54.0910347369 134 70 c 2
 324 555 l 2
 342.077397954 601.144936884 292 637 223 637 c 1
EndSplineSet
EndChar

StartChar: Mu
Encoding: 924 924 104
Width: 1092
Flags: W
HStem: 0 47<40 65> 3 47 639 47<40 148 40 262 943 943 943 1051>
VStem: 148 53<76 626> 231 53 818 125<47 639 47 639>
LayerCount: 2
Fore
SplineSet
1051 0 m 1xb4
 1015 3 921 3 880 3 c 0xb4
 839 3 746 3 710 0 c 1
 710 47 l 1
 818 47 l 1
 818 639 l 1
 817 639 l 1
 538 24 l 2
 534 15 526 0 506 0 c 0xa4
 495 0 483 5 474 25 c 2
 202 626 l 1
 201 626 l 1
 201 76 l 2
 201 54 202 53 231 50 c 0x58
 249 48 266 47 284 47 c 2
 309 47 l 1
 309 0 l 1
 268 3 216 3 174 3 c 0x88
 135 3 78 3 40 0 c 1
 40 47 l 1
 65 47 l 2x80
 93 47 95 47 119 50 c 0x40
 147 53 148 54 148 76 c 2
 148 639 l 1
 40 639 l 1
 40 686 l 1
 262 686 l 2
 284 686 295 686 306 661 c 2
 546 132 l 1
 786 661 l 2
 797 686 808 686 830 686 c 2
 1051 686 l 1
 1051 639 l 1
 943 639 l 1
 943 47 l 1
 1051 47 l 1
 1051 0 l 1xb4
EndSplineSet
EndChar

StartChar: Nu
Encoding: 925 925 105
Width: 900
Flags: W
HStem: 0 47<39 64> 3 47 636 47 639 47<39 147 39 268>
VStem: 147 53<76 599> 230 53 616 53 699 53<205 610>
LayerCount: 2
Fore
SplineSet
860 639 m 1x10
 835 639 l 2x10
 807 639 805 639 781 636 c 0
 753 633 752 632 752 610 c 2
 752 32 l 2
 752 9 752 0 725 0 c 0xa1
 709 0 708 1 698 13 c 2
 200 599 l 1
 200 76 l 2
 200 54 201 53 230 50 c 0x4c
 248 48 265 47 283 47 c 2
 308 47 l 1
 308 0 l 1
 267 3 215 3 173 3 c 0x84
 134 3 77 3 39 0 c 1
 39 47 l 1
 64 47 l 2x80
 92 47 94 47 118 50 c 0
 146 53 147 54 147 76 c 2
 147 639 l 1
 39 639 l 1
 39 686 l 1
 268 686 l 2x58
 289 686 290 685 301 673 c 2
 699 205 l 1
 699 610 l 2
 699 632 698 633 669 636 c 0x23
 651 638 634 639 616 639 c 2
 591 639 l 1
 591 686 l 1
 632 683 684 683 726 683 c 0x12
 765 683 822 683 860 686 c 1
 860 639 l 1x10
EndSplineSet
EndChar

StartChar: Xi
Encoding: 926 926 106
Width: 637
Flags: W
HStem: -5 86<50 97.5933 205 533.662> 591 86<109.338 406>
VStem: 46 47<490 575.819> 352 125<255.852 352.5> 550 47<-106 -20.1808>
LayerCount: 2
Fore
SplineSet
298.819335938 403.463867188 m 1
 316.527959793 408.812134599 341.263979896 415 366 415 c 0
 418 415 477 388 477 317 c 0
 477 216 285 119 205 81 c 1
 588 81 l 1
 597 -106 l 1
 550 -106 l 1
 546 -34 533 -20 518 -14 c 0
 500.555664062 -7.0224609375 397 -5 335 -5 c 2
 50 -5 l 1
 50 81 l 1
 116 110 191 141 252 176 c 0
 306 206 352 255 352 288 c 0
 352 310 314 335 253 335 c 0
 203 335 173 321 112 293 c 1
 103 303 101.07421875 306.135742188 97 317 c 0
 94 325 93 340 95 349 c 1
 406 591 l 1
 308 591 l 6
 246 591 142.444493252 588.977797301 125 582 c 4
 110 576 97 562 93 490 c 5
 46 490 l 5
 55 677 l 5
 573 677 l 1
 573 630 l 1
 294.259765625 411.123046875 l 1
 298.819335938 403.463867188 l 1
EndSplineSet
Substitution2: "'salt' Stylistic Alternatives lookup 0-1" Xi.alt
EndChar

StartChar: Omicron
Encoding: 927 927 107
Width: 864
Flags: W
HStem: -11 42<401.5 458 401.5 546> 657 40<401.5 463>
VStem: 64 153<311 386 311 444> 646 153<319 388>
LayerCount: 2
Fore
SplineSet
799 339 m 0
 799 134 661 -11 431 -11 c 0
 204 -11 64 132 64 339 c 0
 64 549 203 697 432 697 c 0
 654 697 799 555 799 339 c 0
646 354 m 0
 646 422 642 499 604 563 c 0
 564 629 495 657 431 657 c 0
 372 657 305 632 264 571 c 0
 220 503 217 418 217 354 c 0
 217 268 225 197 258 135 c 0
 299 59 372 31 431 31 c 0
 485 31 555 53 600 126 c 0
 642 195 646 284 646 354 c 0
EndSplineSet
EndChar

StartChar: Pi
Encoding: 928 928 108
Width: 900
Flags: W
HStem: 0 47<39 147> 633 47<39 147 39 860 289 610 289 289 752 752 752 860>
VStem: 147 142<47 633 47 633> 610 142<47 633 47 633>
LayerCount: 2
Fore
SplineSet
860 0 m 1
 822 3 724 3 681 3 c 0
 638 3 540 3 502 0 c 1
 502 47 l 1
 610 47 l 1
 610 633 l 1
 289 633 l 1
 289 47 l 1
 397 47 l 1
 397 0 l 1
 359 3 261 3 218 3 c 0
 175 3 77 3 39 0 c 1
 39 47 l 1
 147 47 l 1
 147 633 l 1
 39 633 l 1
 39 680 l 1
 860 680 l 1
 860 633 l 1
 752 633 l 1
 752 47 l 1
 860 47 l 1
 860 0 l 1
EndSplineSet
EndChar

StartChar: Rho
Encoding: 929 929 109
Width: 786
Flags: W
HStem: 3 44<39 147 287 397> 302 41<337 516.865> 639 47<39 147 287 521.967>
VStem: 147 140<47 639> 568 153<411.053 572.339>
LayerCount: 2
Fore
SplineSet
287 639 m 1
 287 47 l 1
 397 47 l 1
 397 0 l 1
 359 3 261 3 218 3 c 0
 175 3 77 3 39 0 c 1
 39 47 l 1
 147 47 l 1
 147 639 l 1
 39 639 l 1
 39 686 l 1
 456 686 l 2
 622 686 721 601 721 491 c 0
 721 374 605 302 466 302 c 2
 337 302 l 1
 337 343 l 1
 417 343 l 2
 568 343 568 420 568 491 c 0
 568 563 568 639 418 639 c 2
 287 639 l 1
EndSplineSet
EndChar

StartChar: Sigma
Encoding: 931 931 110
Width: 831
Flags: W
HStem: -11 47<451 540.5 451 559.5> 650 47<461 500 341.5 541>
VStem: 64 153<298 371 298 445.5> 717 49
LayerCount: 2
Fore
SplineSet
490 36 m 0
 587 36 662.855722656 91.6804882808 715 167 c 0
 724 180 736 183 746 177 c 0
 754.445325891 171.932804465 762 161 752 142 c 0
 705 55 598 -11 466 -11 c 0
 217 -11 64 138 64 343 c 0
 64 548 217 697 466 697 c 0
 534 697 674 668 766 569 c 1
 766 454 l 2
 766 428 765 426 739 426 c 0
 716 426 715.283216414 428.046887064 712 447 c 0
 690 574 595 650 487 650 c 0
 219.301757812 650 217 427 217 343 c 0
 217 259 222.301757812 36 490 36 c 0
EndSplineSet
EndChar

StartChar: Tau
Encoding: 932 932 111
Width: 800
Flags: W
HStem: 0 47<176 329> 628 47<180 252 252 329 471 547 471 471>
VStem: 42 47<434 434> 329 142<47 628 47 628> 710 47<434 434>
LayerCount: 2
Fore
SplineSet
757 434 m 1
 710 434 l 1
 700 548 690 628 547 628 c 2
 471 628 l 1
 471 47 l 1
 624 47 l 1
 624 0 l 1
 570 3 459 3 400 3 c 0
 341 3 230 3 176 0 c 1
 176 47 l 1
 329 47 l 1
 329 628 l 1
 252 628 l 2
 108 628 98 547 89 434 c 1
 42 434 l 1
 63 675 l 1
 736 675 l 1
 757 434 l 1
EndSplineSet
EndChar

StartChar: Upsilon
Encoding: 933 933 112
Width: 870
Flags: W
HStem: 455 117<679.875 741.876> 582 115<127.639 277.453> 597.969 99.0312<602.274 744.503>
VStem: 54 53<531.045 572.318> 366 142<345 463.889> 745 74<536.5 592.351>
LayerCount: 2
Fore
SplineSet
508 345 m 2xdc
 508 519.109820265 591 597.96875 675 597.96875 c 0
 718.767578125 597.96875 745 591.179472444 745 580 c 0
 745 571.455996255 735.96346649 572.854011413 726 572 c 0
 691 569 667 548 667 514 c 0
 667 490 681 455 728 455 c 0
 806 455 819 519 819 554 c 0
 819 618 762 697 666 697 c 0xbc
 575 697 479 635 437 471 c 1
 436 471 l 1
 399 617 313 697 207 697 c 0
 111 697 54 618 54 554 c 0
 54 531 67 531 81 531 c 0
 96 531 104 532 107 551 c 0
 111 573 129 582 193 582 c 0
 224 582 282 582 325 509 c 0
 366 440 366 360 366 345 c 2
 366 47 l 1
 231 47 l 1
 231 0 l 1
 275 3 387 3 437 3 c 0
 487 3 599 3 643 0 c 1
 643 47 l 1
 508 47 l 1
 508 345 l 2xdc
EndSplineSet
EndChar

StartChar: Phi
Encoding: 934 934 113
Width: 831
Flags: W
HStem: -97 44<209 344 475 610> 153 37<281.397 344 475 542.019> 496 37<281.397 344 475 541.557> 737 44<209 344 475 610>
VStem: 64 147<270.498 415.719> 344 131<-53 153.013 190 496 532.988 737> 619 147<271.441 415.001>
LayerCount: 2
Fore
SplineSet
766 343 m 0
 766 296 734 172 475 152 c 1
 475 -53 l 5
 610 -53 l 5
 610 -100 l 5
 566 -97 458 -97 409 -97 c 4
 360 -97 253 -97 209 -100 c 5
 209 -53 l 5
 344 -53 l 5
 344 153 l 1
 188 163 64 236 64 343 c 0
 64 450 188 523 344 533 c 1
 344 737 l 1
 209 737 l 1
 209 784 l 1
 253 781 361 781 410 781 c 0
 459 781 566 781 610 784 c 1
 610 737 l 1
 475 737 l 1
 475 534 l 1
 732 514 766 392 766 343 c 0
344 190 m 1
 344 496 l 1
 219 478 211 401 211 343 c 0
 211 286 219 208 344 190 c 1
619 343 m 0
 619 416 602 482 475 497 c 1
 475 189 l 1
 602 204 619 270 619 343 c 0
EndSplineSet
EndChar

StartChar: Chi
Encoding: 935 935 114
Width: 869
Flags: W
HStem: 0 47<34 63> 3 47 636 47 639 47<49 147 49 49>
VStem: 34 801<0 47 0 47>
LayerCount: 2
Fore
SplineSet
835 0 m 1xa8
 800 3 713 3 673 3 c 0xa8
 628 3 533 3 492 0 c 1
 492 47 l 1
 575 47 l 1
 401 288 l 1
 236 69 l 2
 234 66 229 60 228 58 c 1
 263 47 302 47 320 47 c 1
 320 0 l 1
 284 3 207 3 168 3 c 0x80
 125 3 76 3 34 0 c 1
 34 47 l 1
 63 47 l 2x88
 83 47 104 48 124 50 c 0
 156 53 158 55 167 67 c 2
 369 332 l 1
 147 639 l 1
 49 639 l 1
 49 686 l 1
 84 683 171 683 211 683 c 0x50
 256 683 351 683 392 686 c 1
 392 639 l 1
 309 639 l 1
 452 442 l 1
 584 617 l 2
 586 620 591 626 592 628 c 1
 557 639 518 639 500 639 c 1
 500 686 l 1
 536 683 613 683 652 683 c 0
 695 683 744 683 786 686 c 1
 786 639 l 1
 757 639 l 2x10
 729 639 723 639 699 636 c 0
 664 633 663 632 652 618 c 2
 484 397 l 1
 737 47 l 1
 835 47 l 1
 835 0 l 1xa8
EndSplineSet
EndChar

StartChar: Psi
Encoding: 936 936 115
Width: 894
Flags: W
HStem: -97 44<241 376 507 642> 153 41<507 551.991> 511 36<64.0124 110.124 783.031 828.988> 738 44<241 376 507 642>
VStem: 126 131<298.678 499.08> 376 131<-53 155.286 195 738> 636 131<300.503 499.084>
LayerCount: 2
Fore
SplineSet
829 529 m 0
 829 514 816 512 809 511 c 0
 768 504 767 442 767 397 c 0
 767 384 763 289 694 224 c 0
 659 192 600 161 507 153 c 1
 507 -53 l 5
 642 -53 l 5
 642 -100 l 5
 598 -97 490 -97 441 -97 c 4
 392 -97 285 -97 241 -100 c 5
 241 -53 l 5
 376 -53 l 5
 376 153 l 1
 305 160 236 181 186 235 c 0
 127 299 126 388 126 423 c 0
 126 428 125 504 87 511 c 0
 76 512 64 514 64 529 c 0
 64 547 81 547 96 547 c 2
 168 547 l 2
 228 547 256 505 257 416 c 0
 257 353 261 229 376 195 c 1
 376 738 l 1
 241 738 l 1
 241 785 l 1
 285 782 393 782 442 782 c 0
 491 782 598 782 642 785 c 1
 642 738 l 1
 507 738 l 1
 507 194 l 1
 592 217 635 284 636 405 c 0
 637 543 691 547 725 547 c 2
 797 547 l 2
 812 547 829 547 829 529 c 0
EndSplineSet
EndChar

StartChar: Iotadieresis
Encoding: 938 938 116
Width: 437
Flags: W
HStem: 0 47<33 147 289 403> 639 44<33 147 289 403> 731 155<46.9981 153.012 285.545 392.375>
VStem: 23 155<755.85 861.755> 147 142<47 639> 261 155<755.464 861.755>
LayerCount: 2
Fore
SplineSet
23 808 m 0xf0
 23 851 57 886 100 886 c 0
 141 886 178 854 178 809 c 0
 178 766 143 731 101 731 c 0
 54 731 23 768 23 808 c 0xf0
261 808 m 4xe4
 261 851 295 886 338 886 c 4
 379 886 416 854 416 809 c 4
 416 766 382 731 340 731 c 4
 293 731 261 767 261 808 c 4xe4
403 0 m 1
 362 3 264 3 218 3 c 0
 172 3 74 3 33 0 c 1
 33 47 l 1
 147 47 l 1
 147 639 l 1
 33 639 l 1
 33 686 l 1
 74 683 172 683 218 683 c 0
 264 683 362 683 403 686 c 1
 403 639 l 1
 289 639 l 1
 289 47 l 1xe8
 403 47 l 1
 403 0 l 1
EndSplineSet
EndChar

StartChar: Upsilondieresis
Encoding: 939 939 117
Width: 846
Flags: W
HStem: 455 117<679.875 741.876> 582 115<127.639 277.453> 597.969 99.0312<602.274 744.503> 731 155<246.998 353.012 545.545 652.375>
VStem: 54 53<531.045 572.318> 223 155<755.85 861.755> 366 142<345 463.889> 521 155<755.464 861.755> 745 74<536.5 592.351>
LayerCount: 2
Fore
SplineSet
508 345 m 2xdb80
 508 519.109820265 591 597.96875 675 597.96875 c 0
 718.767578125 597.96875 745 591.179472444 745 580 c 0
 745 571.455996255 735.96346649 572.854011413 726 572 c 0
 691 569 667 548 667 514 c 0
 667 490 681 455 728 455 c 0
 806 455 819 519 819 554 c 0
 819 618 762 697 666 697 c 0xbb80
 575 697 479 635 437 471 c 1
 436 471 l 1
 399 617 313 697 207 697 c 0
 111 697 54 618 54 554 c 0
 54 531 67 531 81 531 c 0
 96 531 104 532 107 551 c 0
 111 573 129 582 193 582 c 0
 224 582 282 582 325 509 c 0
 366 440 366 360 366 345 c 2
 366 47 l 1
 231 47 l 1
 231 0 l 1
 275 3 387 3 437 3 c 0
 487 3 599 3 643 0 c 1
 643 47 l 1
 508 47 l 1
 508 345 l 2xdb80
223 808 m 4x9d80
 223 851 257 886 300 886 c 4
 341 886 378 854 378 809 c 4
 378 766 343 731 301 731 c 4
 254 731 223 768 223 808 c 4x9d80
521 808 m 4
 521 851 555 886 598 886 c 4
 639 886 676 854 676 809 c 4
 676 766 642 731 600 731 c 4
 553 731 521 767 521 808 c 4
EndSplineSet
EndChar

StartChar: alphatonos
Encoding: 940 940 118
Width: 526
Flags: W
HStem: -13 21G<61 110.5> -1 36<454.267 512> 78 50<217.072 288> 396 36<73 143.963>
LayerCount: 2
Fore
SplineSet
312 78 m 1x70
 219 59 150 45 71 -13 c 1xb0
 51 -13 28 -6 21 26 c 1
 82 124 182 217.98 182 313 c 0
 182 345.241886768 156 396 73 396 c 1
 73 432 l 1
 194 430 l 2
 224.991532946 429.487743257 236.685773552 418.827070009 252 391 c 2
 416 93 l 2
 433.046361279 62.025514261 469 35 512 35 c 1
 512 -1 l 1
 350 -1 l 1
 312 78 l 1x70
148 112 m 1
 186 122 261 126 288 128 c 1
 275 155 236 227 224 252 c 1
 201 216 163 138 148 112 c 1
EndSplineSet
EndChar

StartChar: epsilontonos
Encoding: 941 941 119
Width: 511
Flags: W
HStem: -6 40<230.82 367.599> 210.997 30.7282<166.127 259.672> 413 40<226.81 359.297>
VStem: 38 128.127<122.555 210.997 241.726 322.065> 310 36<129 198.287 253.474 322>
LayerCount: 2
Fore
SplineSet
310 129 m 1
 310 182 309.022779567 200.304417855 273 203 c 2
 166.12669816 210.997321906 l 1
 167.306727824 153.876183371 179.477209189 34 305 34 c 0
 404 34 400 135 438 123 c 0
 443.135199809 121.378357955 452 114 452 102 c 0
 452 96 450 92 447 87 c 0
 414.09639748 32.1606624659 370 -6 286 -6 c 0
 132 -6 38 89 38 222 c 0
 38 338 112 453 291 453 c 0
 347 453 406 450 454 373 c 1
 454 328 l 2
 454 300 448 293 427 293 c 0
 377 293 414 413 295 413 c 0
 176.300094137 413 166.822418134 302.931086187 166.065666544 241.725555547 c 1
 273 249 l 2
 309.037311714 251.451517804 310 269 310 322 c 1
 346 322 l 5
 346 129 l 5
 310 129 l 1
EndSplineSet
EndChar

StartChar: etatonos
Encoding: 942 942 120
Width: 639
Flags: W
HStem: 0 36<33 50> 228 33<217 421 217 421> 409 36<33 48 33 33>
VStem: 103 114<59 228 261 380> 421 114<59 228 228 228 261 387>
LayerCount: 2
Fore
SplineSet
33 0 m 1
 33 36 l 1
 50 36 l 2
 101 36 103 40 103 58 c 2
 103 385 l 2
 103 408 94 409 48 409 c 2
 33 409 l 1
 33 445 l 1
 93 442 130 442 154 442 c 0
 198 442 242 443 286 445 c 1
 286 409 l 1
 275 409 l 2
 221 409 217 407 217 380 c 2
 217 261 l 1
 421 261 l 1
 421 389 l 2
 420 408 412 409 363 409 c 2
 352 409 l 1
 352 445 l 1
 396 443 440 442 484 442 c 0
 508 442 545 442 605 445 c 1
 605 409 l 1
 587 409 l 2
 537 409 535 404 535 387 c 2
 535 59 l 2
 535 37 544 36 588 36 c 2
 605 36 l 1
 605 0 l 1
 561 2 517 3 473 3 c 0
 424 3 389 1 352 0 c 1
 352 36 l 1
 365 36 l 2
 413 36 420 37 421 59 c 2
 421 228 l 1
 217 228 l 1
 217 59 l 2
 218 37 224 36 273 36 c 2
 286 36 l 1
 286 0 l 1
 242 2 199 3 155 3 c 0
 106 3 70 1 33 0 c 1
EndSplineSet
EndChar

StartChar: iotatonos
Encoding: 943 943 121
Width: 326
Flags: W
HStem: 0 36<33 102.616 217.259 286> 409 36<33 102.707 217.046 286>
VStem: 103 114<37.0557 407.851>
LayerCount: 2
Fore
SplineSet
33 0 m 1
 33 36 l 1
 51 36 l 2
 108 36 102 41 103 69 c 2
 103 385 l 2
 103 407 96 409 50 409 c 2
 33 409 l 1
 33 445 l 1
 74 443 114 442 156 442 c 0
 199 442 243 443 286 445 c 1
 286 409 l 1
 270 409 l 2
 220 409 217 405 217 388 c 2
 217 59 l 2
 217 37 226 36 270 36 c 2
 286 36 l 1
 286 0 l 1
 243 2 199 3 156 3 c 2
 153 3 l 2
 138 3 101 3 33 0 c 1
EndSplineSet
EndChar

StartChar: upsilondieresistonos
Encoding: 944 944 122
Width: 664
Flags: W
HStem: -192 33<180 269 383 468> 219 64<499.826 549.631> 331 96<94.5239 216.703 438.003 545.37> 484 129<195.959 288.5 360.321 453.375>
VStem: 179 126<500.49 596.603> 269 114<-159 255.596> 343 127<500.49 596.603> 552 63<283.012 322.668>
LayerCount: 2
Fore
SplineSet
498 331 m 4xf5
 391.001198553 331 383 195 383 144 c 6
 383 -159 l 5
 468 -159 l 5
 468 -195 l 5
 418 -193 372 -192 322 -192 c 6
 316 -192 l 6
 298 -192 254 -192 180 -195 c 5
 180 -159 l 5
 269 -159 l 5
 269 143 l 6
 269 230 247 331 156 331 c 4
 96 331 100 319 92 305 c 4
 89 298 79 293 69 293 c 4
 58 293 47 300 47 317 c 4
 47 361 86 427 163 427 c 4
 269 427 309 324 327 257 c 5
 344 334 394 427 492 427 c 4
 585.601775125 427 615 346 615 306 c 4
 615 271 593 219 534 219 c 4
 506 219 498 239 498 251 c 4
 498 264 506.981487828 283 534 283 c 4
 548 283 552 290 552 296 c 4
 552 308.553710938 531.22 331 498 331 c 4xf5
406 484 m 0
 371 484 343 515 343 549 c 0
 343 579 367 613 407 613 c 0
 443 613 470 582 470 549 c 0xf3
 470 518 447 484 406 484 c 0
242 484 m 0
 206 484 179 515 179 549 c 0
 179 579 202 613 243 613 c 0
 278 613 305 582 305 549 c 0xf9
 305 518 282 484 242 484 c 0
EndSplineSet
Substitution2: "'salt' Stylistic Alternatives lookup 0-1" upsilondieresistonos.alt
EndChar

StartChar: alpha
Encoding: 945 945 123
Width: 526
Flags: W
HStem: -13 21G<61 110.5> -1 36<454.267 512> 78 50<217.072 288> 396 36<73 143.963>
LayerCount: 2
Fore
SplineSet
312 78 m 1x70
 219 59 150 45 71 -13 c 1xb0
 51 -13 28 -6 21 26 c 1
 82 124 182 217.98 182 313 c 0
 182 345.241886768 156 396 73 396 c 1
 73 432 l 1
 194 430 l 2
 224.991532946 429.487743257 236.685773552 418.827070009 252 391 c 2
 416 93 l 2
 433.046361279 62.025514261 469 35 512 35 c 1
 512 -1 l 1
 350 -1 l 1
 312 78 l 1x70
148 112 m 1
 186 122 261 126 288 128 c 1
 275 155 236 227 224 252 c 1
 201 216 163 138 148 112 c 1
EndSplineSet
EndChar

StartChar: beta
Encoding: 946 946 124
Width: 515
Flags: W
HStem: -14 46<197.828 332.681> 214 28<237 259.224> 403 41<226.862 352.731> 414 36<23 76.6074>
VStem: 82 114<39.5552 374.349> 370 97<310.415 386.603> 385 107<76.04 164.581>
LayerCount: 2
Fore
SplineSet
370 231.904296875 m 1xec
 425.513671875 220.893554688 492 188.59375 492 125 c 0
 492 30 375 -14 239 -14 c 0
 148 -14 82 19 82 63 c 2
 82 364 l 2
 82 376 80 414 54 414 c 2
 23 414 l 1
 23 450 l 1xda
 83 447 140 448 196 451 c 1
 196 405 l 1
 226 430 260 444 306 444 c 0
 340 444 467 439 467 350 c 0
 467 297.091796875 415.091796875 257.724609375 370 240.381835938 c 1
 370 231.904296875 l 1xec
196 59 m 2
 196 47 219 32 251 32 c 0
 282 32 385 51 385 126 c 0xea
 385 171 295 214 237 214 c 1
 221 242 l 1
 331.833984375 274.971679688 370 325.010740108 370 350 c 0
 370 388 324 403 289 403 c 0xec
 260 403 197 384 196 326 c 2
 196 59 l 2
EndSplineSet
EndChar

StartChar: gamma
Encoding: 947 947 125
Width: 496
Flags: W
HStem: 0 36<33 50> 409 36<33 49 33 454 235.5 258 258 285>
VStem: 103 114<58 59 59 379> 419 48<270 270>
LayerCount: 2
Fore
SplineSet
33 0 m 1
 33 36 l 1
 50 36 l 2
 100 36 103 40 103 58 c 2
 103 385 l 2
 103 407 95 409 49 409 c 2
 33 409 l 1
 33 445 l 1
 454 445 l 1
 467 270 l 1
 419 270 l 1
 412 361 401 409 285 409 c 2
 258 409 l 2
 213 409 217 405 217 379 c 2
 217 59 l 2
 217 38 219 36 285 36 c 2
 303 36 l 1
 303 0 l 1
 255 2 208 3 160 3 c 0
 135 3 97 3 33 0 c 1
EndSplineSet
EndChar

StartChar: delta
Encoding: 948 948 126
Width: 556
Flags: W
HStem: 0 42<10 69.4208 150.638 351.726> 0 28<470.72 542> 454 36<79 149.912>
LayerCount: 2
Fore
SplineSet
10 0 m 1xa0
 10 36 l 1
 46 36 52.1591796875 37.87890625 62 51 c 0
 116 123 143.553710938 171.266601562 158 195 c 0
 172 218 189 246 227 316 c 5
 190 429 145 454 79 454 c 5
 79 490 l 5
 202 488 l 6
 233 488 245 476 260 449 c 6
 462 52 l 2
 469.707363458 36.8523599373 492 28 542 28 c 1
 542 0 l 1x60
 10 0 l 1xa0
257 245 m 1
 203 166 150 66 150 54 c 1
 163 48 216 42 255 42 c 0xa0
 288 42 326 48 353 58 c 1
 333 99 284 201 257 245 c 1
EndSplineSet
EndChar

StartChar: epsilon
Encoding: 949 949 127
Width: 511
Flags: W
HStem: -6 40<230.82 367.599> 210.997 30.7282<166.127 259.672> 413 40<226.81 359.297>
VStem: 38 128.127<122.555 210.997 241.726 322.065> 310 36<129 198.287 253.474 322>
LayerCount: 2
Fore
SplineSet
310 129 m 1
 310 182 309.022779567 200.304417855 273 203 c 2
 166.12669816 210.997321906 l 1
 167.306727824 153.876183371 179.477209189 34 305 34 c 0
 404 34 400 135 438 123 c 0
 443.135199809 121.378357955 452 114 452 102 c 0
 452 96 450 92 447 87 c 0
 414.09639748 32.1606624659 370 -6 286 -6 c 0
 132 -6 38 89 38 222 c 0
 38 338 112 453 291 453 c 0
 347 453 406 450 454 373 c 1
 454 328 l 2
 454 300 448 293 427 293 c 0
 377 293 414 413 295 413 c 0
 176.300094137 413 166.822418134 302.931086187 166.065666544 241.725555547 c 1
 273 249 l 2
 309.037311714 251.451517804 310 269 310 322 c 1
 346 322 l 5
 346 129 l 5
 310 129 l 1
EndSplineSet
EndChar

StartChar: zeta
Encoding: 950 950 128
Width: 419
Flags: W
HStem: 383 47<80.1107 268> 393 37<353.191 387>
VStem: 25 47<306 377.999> 82 105<107 207.204> 251 91<16.2816 102.5>
LayerCount: 2
Fore
SplineSet
268 383 m 5xb8
 165 383 l 6xb8
 137 383 100 381 94 378 c 4
 87.5498046875 374.775390625 75 371 72 306 c 5
 25 306 l 5
 33 430 l 5
 387 430 l 5
 387 393 l 5x78
 313 360 187 247 187 167 c 0
 187 161 197 163 206 160 c 0
 224 156 246 154 262 150 c 0
 298 143 342 121 342 84 c 0
 342 15 276 -38 224 -69 c 1
 208 -36 l 1
 250 -15 251 14 251 34 c 0
 251 38 250 53 238 58 c 0
 193.223632607 76.6568197471 82 72 82 142 c 0
 82 223 209 341 268 383 c 5xb8
EndSplineSet
EndChar

StartChar: eta
Encoding: 951 951 129
Width: 639
Flags: W
HStem: 0 36<33 50> 228 33<217 421 217 421> 409 36<33 48 33 33>
VStem: 103 114<59 228 261 380> 421 114<59 228 228 228 261 387>
LayerCount: 2
Fore
SplineSet
33 0 m 1
 33 36 l 1
 50 36 l 2
 101 36 103 40 103 58 c 2
 103 385 l 2
 103 408 94 409 48 409 c 2
 33 409 l 1
 33 445 l 1
 93 442 130 442 154 442 c 0
 198 442 242 443 286 445 c 1
 286 409 l 1
 275 409 l 2
 221 409 217 407 217 380 c 2
 217 261 l 1
 421 261 l 1
 421 389 l 2
 420 408 412 409 363 409 c 2
 352 409 l 1
 352 445 l 1
 396 443 440 442 484 442 c 0
 508 442 545 442 605 445 c 1
 605 409 l 1
 587 409 l 2
 537 409 535 404 535 387 c 2
 535 59 l 2
 535 37 544 36 588 36 c 2
 605 36 l 1
 605 0 l 1
 561 2 517 3 473 3 c 0
 424 3 389 1 352 0 c 1
 352 36 l 1
 365 36 l 2
 413 36 420 37 421 59 c 2
 421 228 l 1
 217 228 l 1
 217 59 l 2
 218 37 224 36 273 36 c 2
 286 36 l 1
 286 0 l 1
 242 2 199 3 155 3 c 0
 106 3 70 1 33 0 c 1
EndSplineSet
EndChar

StartChar: theta
Encoding: 952 952 130
Width: 511
Flags: W
HStem: -11 39<230.5 273.5 230.5 319.5> 228 33<149 360 149 361 148 360> 419 36<237 265.5>
VStem: 31 117<188.5 208 208 228 188.5 290> 361 117<211 228 228 228>
LayerCount: 2
Fore
SplineSet
31 218 m 0
 31 362 121 455 255 455 c 0
 388 455 478 362 478 219 c 0
 478 74 385 -11 254 -11 c 0
 122 -11 31 77 31 218 c 0
148 208 m 2
 148 169 150 129 165 93 c 0
 177 63 207 28 254 28 c 0
 293 28 337 52 353 120 c 0
 360 150 361 180 361 211 c 2
 361 228 l 1
 148 228 l 1
 148 208 l 2
149 261 m 1
 360 261 l 1
 358 295 355 331 339 362 c 0
 315 410 276 419 255 419 c 0
 219 419 183 397 164 348 c 0
 153 320 151 290 149 261 c 1
EndSplineSet
EndChar

StartChar: iota
Encoding: 953 953 131
Width: 326
Flags: W
HStem: 0 36<33 102.616 217.259 286> 409 36<33 102.707 217.046 286>
VStem: 103 114<37.0557 407.851>
LayerCount: 2
Fore
SplineSet
33 0 m 1
 33 36 l 1
 51 36 l 2
 108 36 102 41 103 69 c 2
 103 385 l 2
 103 407 96 409 50 409 c 2
 33 409 l 1
 33 445 l 1
 74 443 114 442 156 442 c 0
 199 442 243 443 286 445 c 1
 286 409 l 1
 270 409 l 2
 220 409 217 405 217 388 c 2
 217 59 l 2
 217 37 226 36 270 36 c 2
 286 36 l 1
 286 0 l 1
 243 2 199 3 156 3 c 2
 153 3 l 2
 138 3 101 3 33 0 c 1
EndSplineSet
EndChar

StartChar: kappa
Encoding: 954 954 132
Width: 639
Flags: W
HStem: 0 36<33 50> 409 36<33 49 33 33>
VStem: 103 108<58 175 234 385 385 387>
LayerCount: 2
Fore
SplineSet
33 0 m 1
 33 36 l 1
 50 36 l 2
 101 36 103 40 103 58 c 2
 103 385 l 2
 103 407 95 409 49 409 c 2
 33 409 l 1
 33 445 l 1
 76 443 120 442 163 442 c 0
 203 442 242 443 281 445 c 1
 281 409 l 1
 269 409 l 2
 217 409 212 406 211 387 c 2
 211 234 l 1
 408 374 l 1
 424 386 l 1
 428 391 l 1
 429 396 l 2
 428 405 420 407 412 409 c 1
 412 445 l 1
 446 443 481 442 515 442 c 0
 542 442 559 443 593 445 c 1
 593 409 l 1
 523 407 515 391 354 276 c 1
 373 256 391 235 537 70 c 0
 567 36 574 36 619 36 c 1
 619 0 l 1
 584 2 548 3 512 3 c 0
 471 3 431 2 390 0 c 1
 390 36 l 1
 392 36 l 2
 404 36 419 38 419 50 c 0
 419 63 334 148 275 220 c 1
 211 175 l 1
 211 55 l 2
 212 37 221 36 269 36 c 2
 281 36 l 1
 281 0 l 1
 245 1 209 3 161 3 c 0
 118 3 76 2 33 0 c 1
EndSplineSet
EndChar

StartChar: lambda
Encoding: 955 955 133
Width: 554
Flags: W
HStem: -3 36<21 87.6628 138.018 195 294 344.986 464.474 531> 454 36<141 212.168>
LayerCount: 2
Fore
SplineSet
211 363 m 6
 245.787051703 451.467071142 187 454 145 454 c 6
 141 454 l 5
 141 490 l 5
 252 490 l 6
 286 490 292 475 303 448 c 6
 457 68 l 2
 470.319794785 35.1329739071 470 33 522 33 c 2
 531 33 l 1
 531 -3 l 1
 494 -1 456 0 418 0 c 0
 377 0 335 -1 294 -3 c 1
 294 33 l 1
 326 33 345 33 345 45 c 0
 345 49 344 53 339 63 c 2
 240 321 l 1
 240 321 150 83 141 57 c 2
 140.177734375 54.80859375 138 47 138 45 c 0
 138 33 163 33 195 33 c 1
 195 -3 l 1
 154 -1 145 0 104 0 c 0
 66 0 58 -1 21 -3 c 1
 21 33 l 1
 30 33 l 2
 82 33 82.0205078125 34.9921875 95 68 c 2
 211 363 l 6
EndSplineSet
EndChar

StartChar: nu
Encoding: 957 957 134
Width: 571
Flags: W
HStem: 0 36<23 96.7262 154.4 228> 410 35<23 99 338 409.954 469.875 543>
VStem: 99 53<40.5776 361> 413 54<178 405.351>
LayerCount: 2
Fore
SplineSet
23 0 m 1
 23 36 l 1
 92 36 98 46 99 66 c 2
 99 409 l 5
 23 410 l 5
 23 445 l 1
 191 445 l 2
 204 445 213.2 444.4 224 430 c 2
 413 178 l 1
 413 370 l 2
 413 397 413 410 338 410 c 1
 338 445 l 1
 372 443 406 443 440 443 c 0
 474 443 509 443 543 445 c 1
 543 410 l 1
 476 410 468 400 467 380 c 2
 467 28 l 2
 467 10 461 0 440 0 c 0
 421 0 413.151972669 9.37017853207 406 19 c 2
 152 361 l 1
 152 66 l 2
 153 46 160 36 228 36 c 1
 228 0 l 1
 194 2 159 3 125 3 c 0
 91 3 57 2 23 0 c 1
EndSplineSet
EndChar

StartChar: xi
Encoding: 958 958 135
Width: 402
Flags: W
HStem: -5 48<172 323.084> -5 38<32 72.3678> 383 48<80.5037 258>
VStem: 23 47<302 371.744> 199 117<140.895 226.5> 333 47<-74 -16.2562>
LayerCount: 2
Fore
SplineSet
172 43 m 1xbc
 373 43 l 1
 380 -74 l 1
 333 -74 l 1
 330 -50 334.43359375 -31.98046875 314 -18 c 0
 295 -5 259 -5 197 -5 c 2xbc
 32 -5 l 1
 32 33 l 1x7c
 76 52 117.892682606 73.9134537144 149 99 c 0
 180 124 199 158 199 172 c 0
 199 190 173 201 153 201 c 0
 123 201 95 186 68 174 c 1
 68 174 59.5322265625 181.87109375 57 192 c 0
 54 204 56 214 56 214 c 1
 258 383 l 1
 206 383 l 2
 144 383 108 383 89 370 c 0
 68.56640625 356.01953125 73 326 70 302 c 1
 23 302 l 1
 35 431 l 1
 366 431 l 1
 366 394 l 1
 221 271 l 1
 266 269 316 250 316 203 c 0
 316 133 230 73 172 43 c 1xbc
EndSplineSet
Substitution2: "'salt' Stylistic Alternatives lookup 0-1" xi.alt
EndChar

StartChar: omicron
Encoding: 959 959 136
Width: 575
Flags: W
HStem: -6 40<223.5 350.5 223.5 371> 417 36<262.5 308>
VStem: 32 128<185.5 251.5 185.5 284.5> 414 128<185.5 253>
LayerCount: 2
Fore
SplineSet
32 218 m 0
 32 351 123 453 287 453 c 0
 450 453 542 352 542 218 c 0
 542 95 455 -6 287 -6 c 0
 120 -6 32 94 32 218 c 0
160 229 m 0
 160 142 160 34 287 34 c 0
 414 34 414 142 414 229 c 0
 414 277 414 332 393 366 c 0
 371 401 329 417 287 417 c 0
 238 417 196 396 177 359 c 0
 160 325 160 274 160 229 c 0
EndSplineSet
EndChar

StartChar: pi
Encoding: 960 960 137
Width: 639
Flags: W
HStem: 0 36<33 50> 409 36<33 48 33 605 234 250 250 380 562 587 587 605>
VStem: 103 114<68 385 385 386 68 396.5> 421 114<64 387>
LayerCount: 2
Fore
SplineSet
33 0 m 1
 33 36 l 1
 50 36 l 2
 101 36 103 40 103 58 c 2
 103 385 l 2
 103 408 94 409 48 409 c 2
 33 409 l 1
 33 445 l 1
 605 445 l 1
 605 409 l 1
 587 409 l 2
 537 409 535 404 535 387 c 2
 535 60 l 2
 535 38 543 36 588 36 c 2
 605 36 l 1
 605 0 l 1
 561 2 517 3 473 3 c 0
 424 3 389 1 352 0 c 1
 352 36 l 1
 362 36 l 2
 422 36 421 39 421 64 c 2
 421 388 l 2
 420 407 416 409 380 409 c 2
 250 409 l 2
 218 409 217 402 217 386 c 2
 217 68 l 2
 218 41 212 36 268 36 c 2
 286 36 l 1
 286 0 l 1
 242 2 199 3 155 3 c 0
 106 3 70 1 33 0 c 1
EndSplineSet
EndChar

StartChar: rho
Encoding: 961 961 138
Width: 567
Flags: W
HStem: 0 36<34 102.532 217.468 286> 184 33<277 363.32> 405 40<33 103 217 370.007>
VStem: 103 114<36.9185 404.75> 408 128<250.601 370.877>
LayerCount: 2
Fore
SplineSet
34 0 m 1
 34 36 l 1
 45 36 l 2
 99 36 103 37 103 64 c 2
 103 387 l 2
 103 404.999674358 101 409 50 409 c 2
 33 409 l 1
 33 445 l 1
 322 445 l 2
 337 445 353 445 368 444 c 0
 467 436 536 385 536 311 c 0
 536 260 499 184 325 184 c 2
 277 184 l 1
 277 217 l 17
 292 217 l 2
 394 217 408 279 408 311 c 0
 408 342 395 405 294 405 c 2
 234 405 l 2
 221 405 217 403 217 385 c 2
 217 217 l 1
 217 64 l 2
 217 37 221 36 275 36 c 2
 286 36 l 1
 286 0 l 1
 242 2 211 0 163 0 c 24
 113 0 34 0 34 0 c 1
EndSplineSet
EndChar

StartChar: sigma1
Encoding: 962 962 139
Width: 511
Flags: W
HStem: -6 40<231.705 367.599> 413 40<226.315 359.297>
VStem: 38 128<120.673 322.067>
LayerCount: 2
Fore
SplineSet
305 34 m 4
 404 34 400 135 438 123 c 4
 443.135199809 121.378357955 452 114 452 102 c 4
 452 96 450 92 447 87 c 4
 414.09639748 32.1606624659 370 -6 286 -6 c 0
 132 -6 38 89 38 222 c 0
 38 338 112 453 291 453 c 0
 347 453 406 450 454 373 c 1
 454 328 l 2
 454 300 448 293 427 293 c 0
 377 293 414 413 295 413 c 0
 166 413 166 283 166 227 c 0
 166 181 166 34 305 34 c 4
EndSplineSet
EndChar

StartChar: sigma
Encoding: 963 963 140
Width: 511
Flags: W
HStem: -6 40<231.705 367.599> 413 40<226.315 359.297>
VStem: 38 128<120.673 322.067>
LayerCount: 2
Fore
SplineSet
305 34 m 4
 404 34 400 135 438 123 c 4
 443.135199809 121.378357955 452 114 452 102 c 4
 452 96 450 92 447 87 c 4
 414.09639748 32.1606624659 370 -6 286 -6 c 0
 132 -6 38 89 38 222 c 0
 38 338 112 453 291 453 c 0
 347 453 406 450 454 373 c 1
 454 328 l 2
 454 300 448 293 427 293 c 0
 377 293 414 413 295 413 c 0
 166 413 166 283 166 227 c 0
 166 181 166 34 305 34 c 4
EndSplineSet
EndChar

StartChar: tau
Encoding: 964 964 141
Width: 544
Flags: W
HStem: 0 36<116 137> 408 37<133.5 198 344.5 408.5>
VStem: 28 48<270 270> 214 114<59 385 385 386> 467 48<270 270>
LayerCount: 2
Fore
SplineSet
28 270 m 1
 40 445 l 1
 503 445 l 1
 515 270 l 1
 467 270 l 1
 461 346 458 408 359 408 c 0
 330 408 328 403 328 386 c 2
 328 59 l 6
 328 39 331 36 406 36 c 6
 427 36 l 5
 427 0 l 5
 373 2 318 3 264 3 c 4
 205 3 160 1 116 0 c 5
 116 36 l 5
 137 36 l 6
 212 36 214 38 214 59 c 6
 214 385 l 2
 214 403 213 408 183 408 c 0
 84 408 82 348 76 270 c 1
 28 270 l 1
EndSplineSet
EndChar

StartChar: upsilon
Encoding: 965 965 142
Width: 653
Flags: W
HStem: -192 33<180 269 383 468> 219 64<499.826 549.631> 331 96<94.5239 216.703 438.003 545.37>
VStem: 269 114<-159 255.596> 552 63<283.012 322.668>
LayerCount: 2
Fore
SplineSet
498 331 m 0
 391.001198553 331 383 195 383 144 c 2
 383 -159 l 1
 468 -159 l 1
 468 -195 l 1
 418 -193 372 -192 322 -192 c 2
 316 -192 l 2
 298 -192 254 -192 180 -195 c 1
 180 -159 l 1
 269 -159 l 5
 269 143 l 6
 269 230 247 331 156 331 c 0
 96 331 100 319 92 305 c 0
 89 298 79 293 69 293 c 0
 58 293 47 300 47 317 c 0
 47 361 86 427 163 427 c 0
 269 427 309 324 327 257 c 1
 344 334 394 427 492 427 c 0
 585.601775125 427 615 346 615 306 c 0
 615 271 593 219 534 219 c 0
 506 219 498 239 498 251 c 0
 498 264 506.981487828 283 534 283 c 0
 548 283 552 290 552 296 c 0
 552 308.553710938 531.22 331 498 331 c 0
EndSplineSet
EndChar

StartChar: phi
Encoding: 966 966 143
Width: 618
Flags: W
HStem: 0 36<186.5 265.5 352.511 431.5> 82 37.2002<192.045 265.05 352.95 425.603> 330.8 36.2002<194.412 265.05 352.95 422.977> 395 36<186.5 265.427 352.568 431.5>
VStem: 33.5 115.45<155.883 293.225> 265.05 87.9004<36.7092 82 119.2 330.8 367 394.769> 469.05 115.45<156.151 292.997>
CounterMasks: 1 0e
LayerCount: 2
Fore
SplineSet
33.5 224 m 0
 33.5 262 50.5 298 81.5 321 c 0
 136.5 364 237.5 366 265.5 367 c 1
 265.5 372 l 2
 265.5 392 263.5 395 235.5 395 c 2
 186.5 395 l 1
 186.5 431 l 1
 227.5 429 267.5 429 308.5 429 c 0
 349.5 429 390.5 429 431.5 431 c 1
 431.5 395 l 1
 386.5 395 l 2
 351.5 395 352.5 392 352.5 367 c 1
 443.5 364 528.5 349 566.5 288 c 0
 578.5 269 584.5 247 584.5 224 c 0
 584.5 161 538.5 128 522.5 119 c 0
 464.5 86 386.5 84 352.5 82 c 1
 352.5 56 l 2
 352.5 38 353.5 36 397.5 36 c 2
 431.5 36 l 1
 431.5 0 l 1
 390.5 2 349.5 3 308.5 3 c 0
 267.5 3 227.5 2 186.5 0 c 1
 186.5 36 l 1
 199.5 36 l 2
 267.5 36 265.5 37 265.5 56 c 2
 265.5 82 l 1
 202.5 85 73.5 90 40.5 184 c 0
 36.5 197 33.5 211 33.5 224 c 0
148.950195312 225 m 0
 148.950195312 166.799804688 171.450195312 123.700195312 265.049804688 119.200195312 c 1
 265.049804688 330.799804688 l 1
 193.049804688 327.200195312 148.950195312 297.599609375 148.950195312 225 c 0
352.950195312 119.200195312 m 1
 446.549804688 123.700195312 469.049804688 167.700195312 469.049804688 225.900390625 c 0
 469.049804688 282.299804688 443.849609375 326.299804688 352.950195312 330.799804688 c 1
 352.950195312 119.200195312 l 1
EndSplineSet
EndChar

StartChar: chi
Encoding: 967 967 144
Width: 607
Flags: W
HStem: 0 36<22 22> 409 36<27 41 27 27>
LayerCount: 2
Fore
SplineSet
22 0 m 1
 22 36 l 1
 102 37 111 55 128 73 c 2
 253 213 l 1
 110 383 l 2
 89 408 85 409 41 409 c 2
 27 409 l 1
 27 445 l 1
 64 443 100 442 137 442 c 0
 177 442 217 443 257 445 c 1
 257 409 l 1
 232 406 l 1
 217 401 l 1
 226 388 236 377 316 283 c 1
 386 366 405 378 405 390 c 0
 405 404 383 408 370 409 c 1
 370 445 l 1
 404 443 439 442 473 442 c 0
 504 442 535 443 565 445 c 1
 565 409 l 1
 491 408 478 393 460 373 c 2
 347 246 l 1
 347 245 l 1
 501 63 l 2
 522 39 520 36 578 36 c 2
 585 36 l 1
 585 0 l 1
 549 2 514 3 478 3 c 0
 437 3 396 2 355 0 c 1
 355 36 l 1
 383 37 391 41 391 47 c 0
 391 52 380 63 284 176 c 1
 207 90 181 65 181 55 c 0
 181 48 187 38 217 36 c 1
 217 0 l 1
 183 2 149 3 115 3 c 0
 84 3 53 2 22 0 c 1
EndSplineSet
EndChar

StartChar: psi
Encoding: 968 968 145
Width: 608
Flags: W
HStem: 0 36<177 246.616 361.259 430> 286 52<25.0883 75.3771 532.623 582.912> 409 36<177 246.707 361.046 430>
VStem: 247 114<37.0557 109.49 134 407.851>
LayerCount: 2
Fore
SplineSet
361 134 m 5
 398 157 412.3984375 226.797851562 430 262 c 0
 448 298 486 338 528 338 c 2
 541 338 l 2
 565 338 584 327 584 309 c 0
 584 303 581.982421875 290.056640625 569 286 c 0
 537 276 529 267 507 216 c 0
 481.619140625 157.163085938 426 118 361 104 c 1
 361 59 l 2
 361 37 370 36 414 36 c 2
 430 36 l 1
 430 0 l 1
 387 2 343 3 300 3 c 2
 297 3 l 2
 282 3 245 3 177 0 c 1
 177 36 l 1
 195 36 l 2
 252 36 246 41 247 69 c 2
 247 104 l 1
 182 118 126.380859375 157.163085938 101 216 c 0
 79 267 71 276 39 286 c 0
 26.017578125 290.056640625 24 303 24 309 c 0
 24 327 43 338 67 338 c 2
 80 338 l 2
 122 338 160 298 178 262 c 0
 195.6015625 226.797851562 210 157 247 134 c 5
 247 385 l 2
 247 407 240 409 194 409 c 2
 177 409 l 1
 177 445 l 1
 218 443 258 442 300 442 c 0
 343 442 387 443 430 445 c 1
 430 409 l 1
 414 409 l 2
 364 409 361 405 361 388 c 2
 361 134 l 5
EndSplineSet
EndChar

StartChar: omega
Encoding: 969 969 146
Width: 789
Flags: W
HStem: -23 62<197.229 314.685 464.125 580.539> 305 37<289 337.303 439.643 487> 385 47<187.029 257.877 519.123 589.037>
VStem: 33 117<103.411 314.423> 338 101<62.3152 303.296> 627 117<100.534 308.846>
CounterMasks: 1 1c
LayerCount: 2
Fore
SplineSet
439 278 m 6
 439 93 l 2
 439 82 439 82 448 73 c 0
 470 50 501 39 530 39 c 0
 563 39 627 63 627 205 c 0
 627 350 587 385 550 385 c 0
 538 385 519 385 519 407 c 0
 519 431 538 432 545 432 c 0
 652 432 744 343 744 199 c 0
 744 83 660 -22 536 -22 c 0
 501 -23 430 -13 384 55 c 1
 353 -12 278 -23 241 -23 c 0
 126 -23 33 75 33 204 c 0
 33 345 122 432 232 432 c 0
 239 432 258 431 258 407 c 0
 258 385 239 385 227 385 c 0
 190 385 150 349 150 205 c 0
 150 92 195 39 247 39 c 0
 298 39 338 72 338 93 c 2
 338 278 l 6
 338 302 327 304 289 305 c 1
 289 342 l 1
 325 340 351 338 393 338 c 0
 418 338 442 339 487 342 c 1
 487 305 l 1
 449 304 439 302 439 278 c 6
EndSplineSet
EndChar

StartChar: iotadieresis
Encoding: 970 970 147
Width: 318
Flags: W
HStem: 0 36<33 102.616 217.259 286> 409 36<33 102.707 217.046 286> 484 129<27.9586 120.5 192.321 285.375>
VStem: 11 126<500.49 596.603> 103 114<37.0557 407.851> 175 127<500.49 596.603>
LayerCount: 2
Fore
SplineSet
238 484 m 4xe4
 203 484 175 515 175 549 c 4
 175 579 199 613 239 613 c 4
 275 613 302 582 302 549 c 4
 302 518 279 484 238 484 c 4xe4
74 484 m 4
 38 484 11 515 11 549 c 4
 11 579 34 613 75 613 c 4
 110 613 137 582 137 549 c 4xf0
 137 518 114 484 74 484 c 4
33 0 m 1
 33 36 l 1
 51 36 l 2
 108 36 102 41 103 69 c 2
 103 385 l 2
 103 407 96 409 50 409 c 2
 33 409 l 1
 33 445 l 1
 74 443 114 442 156 442 c 0
 199 442 243 443 286 445 c 1
 286 409 l 1
 270 409 l 2
 220 409 217 405 217 388 c 2
 217 59 l 2xe8
 217 37 226 36 270 36 c 2
 286 36 l 1
 286 0 l 1
 243 2 199 3 156 3 c 2
 153 3 l 2
 138 3 101 3 33 0 c 1
EndSplineSet
EndChar

StartChar: upsilondieresis
Encoding: 971 971 148
Width: 664
Flags: W
HStem: -192 33<180 269 383 468> 219 64<499.826 549.631> 331 96<94.5239 216.703 438.003 545.37> 484 129<195.959 288.5 360.321 453.375>
VStem: 179 126<500.49 596.603> 269 114<-159 255.596> 343 127<500.49 596.603> 552 63<283.012 322.668>
LayerCount: 2
Fore
SplineSet
498 331 m 4xf5
 391.001198553 331 383 195 383 144 c 6
 383 -159 l 5
 468 -159 l 5
 468 -195 l 5
 418 -193 372 -192 322 -192 c 6
 316 -192 l 6
 298 -192 254 -192 180 -195 c 5
 180 -159 l 5
 269 -159 l 5
 269 143 l 6
 269 230 247 331 156 331 c 4
 96 331 100 319 92 305 c 4
 89 298 79 293 69 293 c 4
 58 293 47 300 47 317 c 4
 47 361 86 427 163 427 c 4
 269 427 309 324 327 257 c 5
 344 334 394 427 492 427 c 4
 585.601775125 427 615 346 615 306 c 4
 615 271 593 219 534 219 c 4
 506 219 498 239 498 251 c 4
 498 264 506.981487828 283 534 283 c 4
 548 283 552 290 552 296 c 4
 552 308.553710938 531.22 331 498 331 c 4xf5
406 484 m 0
 371 484 343 515 343 549 c 0
 343 579 367 613 407 613 c 0
 443 613 470 582 470 549 c 0xf3
 470 518 447 484 406 484 c 0
242 484 m 0
 206 484 179 515 179 549 c 0
 179 579 202 613 243 613 c 0
 278 613 305 582 305 549 c 0xf9
 305 518 282 484 242 484 c 0
EndSplineSet
Substitution2: "'salt' Stylistic Alternatives lookup 0-1" upsilondieresis.alt
EndChar

StartChar: omicrontonos
Encoding: 972 972 149
Width: 500
Flags: W
LayerCount: 2
Fore
SplineSet
249 -11 m 0
 132 -11 28 85 28 214 c 0
 28 338 124 448 250 448 c 0
 372 448 471 341 471 214 c 0
 471 87 370 -11 249 -11 c 0
337 340 m 0
 317 374 283 391 249 391 c 0
 184 391 150 338 143 281 c 0
 141 260 141 239 141 222 c 0
 141 183 142 136 161 101 c 0
 182 65 217 49 250 49 c 0
 288 49 322 71 340 107 c 0
 358 143 358 188 358 222 c 0
 358 258 358 306 337 340 c 0
EndSplineSet
EndChar

StartChar: upsilontonos
Encoding: 973 973 150
Width: 653
Flags: W
HStem: -192 33<180 275 373 468> 219 64<499.826 549.631> 331 96<94.5239 217.282 435.47 545.37>
VStem: 275 98<-159 252.822> 552 63<283.012 322.668>
LayerCount: 2
Fore
SplineSet
498 331 m 0
 391.001198553 331 383 195 383 144 c 2
 383 -159 l 1
 468 -159 l 1
 468 -195 l 1
 418 -193 372 -192 322 -192 c 2
 316 -192 l 2
 298 -192 254 -192 180 -195 c 1
 180 -159 l 1
 269 -159 l 5
 269 143 l 6
 269 230 247 331 156 331 c 0
 96 331 100 319 92 305 c 0
 89 298 79 293 69 293 c 0
 58 293 47 300 47 317 c 0
 47 361 86 427 163 427 c 0
 269 427 309 324 327 257 c 1
 344 334 394 427 492 427 c 0
 585.601775125 427 615 346 615 306 c 0
 615 271 593 219 534 219 c 0
 506 219 498 239 498 251 c 0
 498 264 506.981487828 283 534 283 c 0
 548 283 552 290 552 296 c 0
 552 308.553710938 531.22 331 498 331 c 0
EndSplineSet
Substitution2: "'salt' Stylistic Alternatives lookup 0-1" upsilontonos.alt
EndChar

StartChar: omegatonos
Encoding: 974 974 151
Width: 789
Flags: W
HStem: -23 62<197.229 314.685 464.125 580.539> 305 37<289 337.303 439.643 487> 385 47<187.029 257.877 519.123 589.037>
VStem: 33 117<103.411 314.423> 338 101<62.3152 303.296> 627 117<100.534 308.846>
CounterMasks: 1 1c
LayerCount: 2
Fore
SplineSet
439 278 m 6
 439 93 l 2
 439 82 439 82 448 73 c 0
 470 50 501 39 530 39 c 0
 563 39 627 63 627 205 c 0
 627 350 587 385 550 385 c 0
 538 385 519 385 519 407 c 0
 519 431 538 432 545 432 c 0
 652 432 744 343 744 199 c 0
 744 83 660 -22 536 -22 c 0
 501 -23 430 -13 384 55 c 1
 353 -12 278 -23 241 -23 c 0
 126 -23 33 75 33 204 c 0
 33 345 122 432 232 432 c 0
 239 432 258 431 258 407 c 0
 258 385 239 385 227 385 c 0
 190 385 150 349 150 205 c 0
 150 92 195 39 247 39 c 0
 298 39 338 72 338 93 c 2
 338 278 l 6
 338 302 327 304 289 305 c 1
 289 342 l 1
 325 340 351 338 393 338 c 0
 418 338 442 339 487 342 c 1
 487 305 l 1
 449 304 439 302 439 278 c 6
EndSplineSet
EndChar

StartChar: periodcentered
Encoding: 183 183 152
Width: 361
Flags: W
HStem: 289 156<161 200.5 161 203>
VStem: 102 156<347.5 389.5 347.5 390.5>
LayerCount: 2
Fore
SplineSet
102 367 m 0
 102 414 142 445 180 445 c 0
 221 445 258 412 258 367 c 0
 258 328 226 289 180 289 c 0
 139 289 102 322 102 367 c 0
EndSplineSet
EndChar

StartChar: uni03A9
Encoding: 937 937 153
Width: 1000
Flags: W
LayerCount: 2
Fore
SplineSet
686 -22 m 0
 586 -22 531 23 500 64 c 1
 442 -15 349 -22 313 -22 c 0
 159 -22 55 148 55 341 c 0
 55 541 171 705 323 705 c 0
 330 705 357 700 357 675 c 0
 357 656 342 643 326 643 c 0
 282 643 192 592 192 345 c 0
 192 143 253 42 321 42 c 0
 326 42 436 56 440 92 c 0
 440 95 440 98 440 101 c 2
 440 481 l 2
 440 493 443 494 430 496 c 0
 424 496 417 496 391 497 c 1
 391 564 l 1
 439 561 465 561 492 561 c 0
 515 561 556 560 608 565 c 1
 608 497 l 2
 607 497 567 497 560 494 c 0
 557 492 558 488 558 481 c 2
 558 101 l 2
 558 89 559 87 570 78 c 0
 601 51 644 42 678 42 c 0
 745 42 806 144 806 345 c 0
 806 594 717 643 673 643 c 0
 657 643 642 656 642 675 c 0
 642 700 669 705 676 705 c 0
 758 705 828 656 877 583 c 0
 924 511 944 424 944 341 c 0
 944 149 839 -22 686 -22 c 0
EndSplineSet
EndChar

StartChar: Xi.alt
Encoding: 1114113 -1 154
Width: 637
Flags: W
HStem: -5 86<50 93.3618 335 533.662> 436 91<269.735 394.547> 591 86<109.338 308>
VStem: 46 47<490 575.819> 146 52<313.994 357.143> 412 102<332.711 418.7> 550 47<-106 -20.1808>
LayerCount: 2
Fore
SplineSet
573 591 m 1
 573 677 l 1
 55 677 l 1
 46 490 l 1
 93 490 l 1
 97 562 110 576 125 582 c 0
 142.444493252 588.977797301 246 591 308 591 c 2
 573 591 l 1
148 367 m 1
 148 357 146 324 146 316 c 1
 157 312 185 306 198 302 c 1
 215 376 268 436 338 436 c 0
 389 436 412 400 412 378 c 0
 412 331 293.53264903 225.063954444 242 191 c 0
 183 152 116 110 50 81 c 1
 50 -5 l 1
 335 -5 l 2
 397 -5 500.555664062 -7.0224609375 518 -14 c 0
 533 -20 546 -34 550 -106 c 1
 597 -106 l 1
 588 81 l 1
 205 81 l 1
 285 119 514 266 514 397 c 0
 514 478 436 527 344 527 c 0
 231.263671875 527 174 443 148 367 c 1
EndSplineSet
EndChar

StartChar: uni0375
Encoding: 885 885 155
Width: 194
Flags: W
LayerCount: 2
Fore
SplineSet
108 -191 m 0
 105 -199 96 -208 89 -213 c 0
 82 -216 80 -216 69 -216 c 0
 44 -216 22 -198 22 -168 c 0
 22 -156 25 -147 34 -134 c 0
 41 -123 55 -105 80 -71 c 2
 141 10 l 1
 150 3 169 -6 169 -21 c 1
 169 -21 109 -187 108 -191 c 0
EndSplineSet
EndChar

StartChar: uni037E
Encoding: 894 894 156
Width: 319
Flags: W
HStem: -194 21G<126 137> 0 156<135 170.5> 288 156<137.5 180.5>
VStem: 81 156<344.5 387.5>
LayerCount: 2
Fore
SplineSet
237 366 m 0
 237 323 202 288 159 288 c 0
 116 288 81 323 81 366 c 0
 81 409 116 444 159 444 c 0
 202 444 237 409 237 366 c 0
240 32 m 0
 240 -104 144 -194 130 -194 c 0
 122 -194 111 -184 111 -174 c 0
 111 -168 113 -166 121 -159 c 0
 152 -129 195 -75 203 12 c 1
 198 9 182 0 159 0 c 0
 108 0 81 38 81 78 c 0
 81 121 112 156 158 156 c 0
 215 156 240 97 240 32 c 0
EndSplineSet
EndChar

StartChar: upsilon.alt
Encoding: 1114114 -1 157
Width: 607
Flags: W
HStem: -195 48<179 248> 409 36<12 12 12 20>
VStem: 248 109<-147 -22 -22 -21 -147 -8.5>
LayerCount: 2
Fore
SplineSet
12 409 m 1
 12 445 l 1
 49 443 86 442 124 442 c 0
 165 442 207 443 248 445 c 1
 248 409 l 1
 243 409 l 2
 208 409 196 407 196 397 c 0
 196 392 199 385 203 375 c 2
 336 71 l 1
 462 361 l 2
 467 372 471 380 471 387 c 0
 471 405 442 408 423 409 c 1
 423 445 l 1
 453 443 484 442 514 442 c 0
 540 442 567 443 593 445 c 1
 593 409 l 1
 527 408 527 389 512 355 c 2
 364 16 l 2
 358 2 357 1 357 -21 c 2
 357 -147 l 1
 426 -147 l 1
 426 -195 l 1
 384 -193 341 -192 299 -192 c 0
 275 -192 251 -192 179 -195 c 1
 179 -147 l 1
 248 -147 l 1
 248 -22 l 2
 248 5 247 2 234 33 c 2
 80 387 l 2
 70 409 63 409 20 409 c 2
 12 409 l 1
EndSplineSet
Substitution2: "'salt' Stylistic Alternatives lookup 0-1" upsilondieresis
EndChar

StartChar: uni0394
Encoding: 916 916 158
Width: 750
Flags: W
HStem: 0 47<18 80.997 200.395 513.477 637.109 731> 625 47<149 245.566>
LayerCount: 2
Fore
SplineSet
334 473 m 1
 315 511 306.262735921 527.696349348 297 543 c 0
 251 619 216 625 149 625 c 1
 149 672 l 1
 332 670 l 2
 363 670 378 660 392 629 c 2
 641 60 l 2
 648 45 660 47 697 47 c 2
 731 47 l 1
 731 0 l 1
 18 0 l 1
 18 47 l 1
 55 47 71 49 81 63 c 0
 186.901854104 211.262595746 240 325 334 473 c 1
375 386 m 1
 292 265 199 89 199 69 c 1
 228 55 306 53 367 53 c 0
 419 53 483 61 515 69 c 1
 487 134 411 304 375 386 c 1
EndSplineSet
EndChar

StartChar: xi.alt
Encoding: 1114115 -1 159
Width: 402
Flags: W
HStem: -5 68<197 323.084> -5 58<32 80.299> 252 64<158.468 227.225> 363 68<79.9159 206>
VStem: 23 47<292 351.744> 229 96<179.782 250.94> 333 47<-74 -16.2562>
LayerCount: 2
Fore
SplineSet
146 71.009765625 m 5xbe
 240 107 325 167.330277195 325 242 c 4
 325 289 267.04296875 316 222 316 c 0
 166.110351562 316 118 290 91 242 c 1
 91 242 87 221 85 204 c 1
 97 198 125 188 125 188 c 1
 137 210 170 252 200 252 c 0
 220 252 229 239.988531378 229 222 c 0
 229 163.98 138 96 32 53 c 1
 32 -5 l 1x7e
 197 -5 l 2
 259 -5 295 -5 314 -18 c 0
 334.43359375 -31.98046875 330 -50 333 -74 c 1
 380 -74 l 1
 373 63 l 1
 146 63 l 1
 146 71.009765625 l 5xbe
366 363 m 1
 366 431 l 1
 35 431 l 1
 23 292 l 1
 70 292 l 1
 73 316 68.56640625 336.01953125 89 350 c 0
 108 363 144 363 206 363 c 2
 366 363 l 1
EndSplineSet
EndChar

StartChar: ampersand.alt
Encoding: 1114116 -1 160
Width: 880
Flags: W
LayerCount: 2
Fore
SplineSet
646 447 m 1
 746 447 l 2
 751 447 776 447 788 485 c 1
 848 478 l 1
 819 351 l 1
 780 365 775 367 751 367 c 0
 641 367 566 276 566 176 c 0
 566 87 623 53 662 53 c 0
 691 53 718 67 763 150 c 1
 803 124 821 101 827 63 c 1
 750 -6 672 -9 639 -9 c 0
 606 -9 576 -3 550 8 c 1
 511 -12 464 -22 406 -22 c 0
 218 -22 56 136 56 342 c 0
 56 545 217 704 406 705 c 0
 506 705 677 673 677 529 c 0
 677 496 665 469 646 447 c 1
417 638 m 0
 372 637 242 617 203 447 c 1
 469 447 l 2
 539 447 583 470 583 504 c 0
 583 559 538 638 417 638 c 0
591 386 m 1
 610 367 l 1
 193 367 l 1
 192 358 192 350 192 341 c 0
 192 73 366 45 418 45 c 0
 444 45 466 49 486 54 c 1
 462 82 449 118 449 160 c 0
 449 285 507 333 600 392 c 1
 591 376 l 1
 591 386 l 1
EndSplineSet
EndChar

StartChar: upsilondieresis.alt
Encoding: 1114117 -1 161
Width: 630
Flags: W
HStem: -195 48<179 248> 409 36<12 12 12 20>
VStem: 248 109<-147 -22 -22 -21 -147 -8.5>
LayerCount: 2
Fore
SplineSet
12 409 m 1
 12 445 l 1
 49 443 86 442 124 442 c 0
 165 442 207 443 248 445 c 1
 248 409 l 1
 243 409 l 2
 208 409 196 407 196 397 c 0
 196 392 199 385 203 375 c 2
 336 71 l 1
 462 361 l 2
 467 372 471 380 471 387 c 0
 471 405 442 408 423 409 c 1
 423 445 l 1
 453 443 484 442 514 442 c 0
 540 442 567 443 593 445 c 1
 593 409 l 1
 527 408 527 389 512 355 c 2
 364 16 l 2
 358 2 357 1 357 -21 c 2
 357 -147 l 1
 426 -147 l 1
 426 -195 l 1
 384 -193 341 -192 299 -192 c 0
 275 -192 251 -192 179 -195 c 1
 179 -147 l 1
 248 -147 l 1
 248 -22 l 2
 248 5 247 2 234 33 c 2
 80 387 l 2
 70 409 63 409 20 409 c 2
 12 409 l 1
397 484 m 4
 361 484 333 515 333 549 c 4
 333 579 357 613 397 613 c 4
 433 613 460 582 460 549 c 4
 460 518 437 484 397 484 c 4
231 484 m 4
 196 484 168 515 168 549 c 4
 168 579 192 613 232 613 c 4
 268 613 295 582 295 549 c 4
 295 518 272 484 231 484 c 4
EndSplineSet
EndChar

StartChar: upsilondieresistonos.alt
Encoding: 1114118 -1 162
Width: 630
Flags: W
HStem: -195 48<179 248 357 426> 409 36<12 77.6926 196.009 248 423 470.267 530.687 593> 484 129<185.321 278.375 350.435 443.5>
VStem: 168 127<500.49 596.603> 248 109<-147 47.7812> 333 127<500.49 596.603>
LayerCount: 2
Fore
SplineSet
12 409 m 1xe8
 12 445 l 1
 49 443 86 442 124 442 c 0
 165 442 207 443 248 445 c 1
 248 409 l 1
 243 409 l 2
 208 409 196 407 196 397 c 0
 196 392 199 385 203 375 c 2
 336 71 l 1
 462 361 l 2
 467 372 471 380 471 387 c 0
 471 405 442 408 423 409 c 1
 423 445 l 1
 453 443 484 442 514 442 c 0
 540 442 567 443 593 445 c 1
 593 409 l 1
 527 408 527 389 512 355 c 2
 364 16 l 2
 358 2 357 1 357 -21 c 2
 357 -147 l 1
 426 -147 l 1
 426 -195 l 1
 384 -193 341 -192 299 -192 c 0
 275 -192 251 -192 179 -195 c 1
 179 -147 l 1
 248 -147 l 1
 248 -22 l 2
 248 5 247 2 234 33 c 2
 80 387 l 2
 70 409 63 409 20 409 c 2
 12 409 l 1xe8
397 484 m 4
 361 484 333 515 333 549 c 4
 333 579 357 613 397 613 c 4
 433 613 460 582 460 549 c 4xe4
 460 518 437 484 397 484 c 4
231 484 m 4
 196 484 168 515 168 549 c 4
 168 579 192 613 232 613 c 4
 268 613 295 582 295 549 c 4xf0
 295 518 272 484 231 484 c 4
EndSplineSet
EndChar

StartChar: upsilontonos.alt
Encoding: 1114119 -1 163
Width: 607
Flags: W
HStem: -195 48<179 248> 409 36<12 12 12 20>
VStem: 248 109<-147 -22 -22 -21 -147 -8.5>
LayerCount: 2
Fore
SplineSet
12 409 m 1
 12 445 l 1
 49 443 86 442 124 442 c 0
 165 442 207 443 248 445 c 1
 248 409 l 1
 243 409 l 2
 208 409 196 407 196 397 c 0
 196 392 199 385 203 375 c 2
 336 71 l 1
 462 361 l 2
 467 372 471 380 471 387 c 0
 471 405 442 408 423 409 c 1
 423 445 l 1
 453 443 484 442 514 442 c 0
 540 442 567 443 593 445 c 1
 593 409 l 1
 527 408 527 389 512 355 c 2
 364 16 l 2
 358 2 357 1 357 -21 c 2
 357 -147 l 1
 426 -147 l 1
 426 -195 l 1
 384 -193 341 -192 299 -192 c 0
 275 -192 251 -192 179 -195 c 1
 179 -147 l 1
 248 -147 l 1
 248 -22 l 2
 248 5 247 2 234 33 c 2
 80 387 l 2
 70 409 63 409 20 409 c 2
 12 409 l 1
EndSplineSet
EndChar

StartChar: uni0374
Encoding: 884 884 164
Width: 194
Flags: W
LayerCount: 2
Fore
SplineSet
101 678 m 2
 100 676 l 2
 104 684 115 700 136 700 c 0
 161 700 185 682 185 651 c 0
 185 641 185 638 182 630 c 0
 160 597 64 480 61 480 c 0
 51 483 38 499 38 505 c 0
 39 512 95 666 101 678 c 2
EndSplineSet
EndChar

StartChar: uni03BC
Encoding: 956 956 165
Width: 749
Flags: W
HStem: -8 86<302.645 430.682> -6 49<27.169 127.688> -4 56<611.489 689.579> 12 31<26 66.7194> 395 36<106 166.556 580.448 639>
VStem: 180 69<149.689 380.506> 470 98<119.088 383.696>
LayerCount: 2
Fore
SplineSet
494 86 m 1x2e
 474 52 434 -8 362 -8 c 0x8e
 287 -8 240 49 215 101 c 1
 212 61 172 -6 91 -6 c 0x4e
 72 -6 51 -1 26 12 c 1
 26 43 l 1x1e
 49 43 53 43 56 43 c 0x4e
 180 43 180 163 180 264 c 0
 180 326 175 371 167 381 c 0
 158 393 118 394 106 395 c 1
 106 431 l 1
 170 428 217 427 255 429 c 5
 251 386 249 368 249 338 c 4
 249 163 272 78 367 78 c 0x8e
 439 78 470 99 470 292 c 0
 470 337 464 394 459 428 c 1
 513 428 577 428 639 429 c 1
 641 392 l 1
 634 392 589 393 580 384 c 0
 574 378 568 341 568 290 c 0
 568 198 584 52 650 52 c 0
 665 52 670 54 705 80 c 1
 719 46 l 1
 693 18 670 -4 626 -4 c 0
 563 -4 519 40 494 86 c 1x2e
EndSplineSet
EndChar

StartChar: slash
Encoding: 47 47 166
Width: 575
Flags: W
HStem: -250 21G<87 104.5> 730 20G<469.5 487>
VStem: 64 446
LayerCount: 2
Fore
SplineSet
510 719 m 1
 510 719 510 712 505 700 c 2
 126 -222 l 2
 120 -237 115 -250 94 -250 c 0
 80 -250 64 -239 64 -219 c 1
 64 -219 64 -212 69 -200 c 2
 448 722 l 2
 454 736 459 750 480 750 c 0
 494 750 510 739 510 719 c 1
EndSplineSet
EndChar

StartChar: question
Encoding: 63 63 167
Width: 543
Flags: W
HStem: 0 156<233.5 276.5> 226 21G<243.5 267> 509 124 664 36<234 281.5 193.5 303>
VStem: 64 125<551.5 595.5 551.5 605> 232 47<253 256 256 283 244 291 244 323.5> 350 128<556 601.5>
LayerCount: 2
Fore
SplineSet
478 571 m 0
 478 508 430 481 410 469 c 0
 372 447 279 386 279 283 c 2
 279 256 l 2
 279 232 279 226 255 226 c 0
 232 226 232 231 232 253 c 2
 232 291 l 2
 232 356 260 433 322 498 c 0
 342 518 350 534 350 578 c 0
 350 625 349 664 257 664 c 0
 211 664 170 652 144 633 c 1
 146 632 189 619 189 572 c 0
 189 531 158 509 126 509 c 0
 101 509 64 525 64 573 c 0
 64 637 124 700 263 700 c 0
 300 700 478 700 478 571 c 0
333 78 m 0
 333 35 298 0 255 0 c 0
 212 0 177 35 177 78 c 0
 177 121 212 156 255 156 c 0
 298 156 333 121 333 78 c 0
EndSplineSet
EndChar

